<?xml version="1.0" encoding="UTF-8" standalone="no"?>
<!DOCTYPE svg PUBLIC "-//W3C//DTD SVG 1.1//EN" "http://www.w3.org/Graphics/SVG/1.1/DTD/svg11.dtd">
<svg xmlns="http://www.w3.org/2000/svg" version="1.1" viewBox="0 0 1024 415" style="width: 40%; height: 40%;" preserveAspectRatio="xMidYMid meet">
<g stroke-width="2.00" fill="none" stroke-linecap="butt">
<path stroke="#747474" vector-effect="non-scaling-stroke" d="
  M 146.12 75.37
  L 152.73 66.04
  Q 153.31 65.22 152.31 65.22
  L 124.60 65.22
  Q 124.18 65.22 124.18 65.64
  L 124.18 107.21
  Q 124.18 108.81 124.90 107.38
  C 125.40 106.39 125.72 105.36 126.46 104.26
  Q 136.03 90.20 145.68 76.20
  Q 145.79 76.04 145.84 75.87
  Q 145.88 75.71 146.12 75.37"
/>
<path stroke="#747474" vector-effect="non-scaling-stroke" d="
  M 308.33 153.10
  Q 295.90 143.44 291.94 130.31
  Q 287.85 116.75 290.49 101.48
  Q 292.06 92.42 296.20 85.27
  Q 300.69 77.54 307.75 72.06
  Q 313.81 67.36 320.62 65.61
  Q 322.15 65.23 320.58 65.23
  L 275.18 65.23
  Q 274.67 65.23 274.67 65.74
  L 274.67 158.67
  A 0.45 0.44 -0.0 0 1 274.22 159.11
  L 253.98 159.11
  Q 253.41 159.11 253.12 158.67
  L 209.62 92.01
  Q 209.43 91.71 209.46 92.06
  Q 210.02 99.37 210.01 105.01
  Q 209.92 154.54 209.93 158.54
  Q 209.94 159.12 209.35 159.12
  L 191.06 159.12
  Q 190.33 159.12 190.33 158.39
  L 190.33 65.78
  Q 190.33 65.22 189.77 65.22
  L 178.45 65.22
  Q 177.90 65.22 177.58 65.65
  L 144.95 109.23
  A 0.92 0.91 45.6 0 0 144.94 110.32
  L 180.60 158.44
  A 0.41 0.41 0.0 0 1 180.27 159.10
  L 155.07 159.10
  A 0.43 0.43 0.0 0 1 154.72 158.92
  L 125.78 117.19
  Q 125.46 116.74 125.36 116.21
  Q 125.22 115.42 124.70 114.57
  Q 124.18 113.73 124.18 114.72
  L 124.18 158.58
  Q 124.18 159.12 123.64 159.12
  L 105.02 159.12
  Q 104.46 159.12 104.46 159.67
  L 104.46 196.16
  Q 104.46 197.70 104.83 196.20
  Q 109.22 178.46 124.79 168.11
  Q 127.09 166.59 131.69 164.51
  Q 137.33 161.97 138.99 161.86
  Q 141.78 161.67 143.55 161.33
  Q 146.56 160.76 148.05 160.69
  Q 162.41 159.97 171.04 162.16
  Q 172.24 162.47 176.09 163.84
  Q 176.58 164.01 176.58 164.53
  L 176.58 182.95
  A 0.71 0.71 0.0 0 1 175.51 183.57
  Q 170.67 180.78 166.31 179.76
  Q 161.22 178.58 156.58 178.30
  Q 150.13 177.92 144.04 180.24
  Q 143.80 180.33 143.31 180.39
  Q 142.55 180.48 142.53 180.48
  Q 130.38 185.73 126.31 198.30
  Q 125.41 201.07 125.20 203.85
  Q 125.12 204.91 124.67 209.51
  Q 124.21 214.17 126.18 221.10
  C 126.59 222.54 127.32 223.51 127.84 224.98
  Q 128.38 226.52 129.35 227.91
  Q 132.93 233.03 136.31 235.27
  Q 144.69 240.83 155.28 240.27
  Q 165.95 239.72 175.74 234.47
  A 0.58 0.57 76.0 0 1 176.58 234.98
  L 176.58 252.72
  Q 176.58 253.28 176.05 253.46
  L 167.73 256.18
  Q 166.89 256.45 167.75 256.69
  C 169.29 257.11 171.09 256.61 172.43 256.61
  Q 182.40 256.62 192.22 256.64
  A 0.41 0.41 0.0 0 0 192.63 256.23
  L 192.63 162.25
  A 0.38 0.38 0.0 0 1 193.01 161.87
  L 246.10 161.87
  A 0.62 0.62 0.0 0 1 246.72 162.49
  L 246.72 178.44
  A 0.46 0.46 0.0 0 1 246.26 178.90
  L 213.79 178.90
  A 0.55 0.55 0.0 0 0 213.24 179.45
  L 213.24 200.16
  Q 213.24 200.59 213.66 200.59
  L 243.95 200.59
  A 0.45 0.45 0.0 0 1 244.40 201.04
  L 244.40 216.82
  Q 244.40 217.28 243.94 217.28
  L 213.72 217.28
  Q 213.24 217.28 213.24 217.77
  L 213.24 239.08
  Q 213.24 239.68 213.83 239.68
  L 248.34 239.68
  A 0.66 0.66 0.0 0 1 249.00 240.34
  L 249.00 255.82
  A 0.81 0.80 90.0 0 0 249.80 256.63
  L 263.98 256.63
  A 0.36 0.36 0.0 0 0 264.34 256.27
  L 264.34 162.18
  A 0.31 0.31 0.0 0 1 264.65 161.87
  L 286.07 161.87
  Q 286.65 161.87 286.97 162.36
  L 293.68 172.65
  Q 293.94 173.05 294.10 173.50
  C 294.36 174.21 295.16 175.00 295.44 175.43
  Q 299.02 180.91 302.60 186.39
  Q 321.50 215.37 329.14 227.24
  Q 329.15 227.25 329.15 227.18
  L 329.09 162.54
  A 0.61 0.60 -90.0 0 1 329.69 161.93
  L 348.06 161.93
  Q 348.67 161.93 348.67 162.54
  L 348.67 256.20
  A 0.41 0.40 -90.0 0 0 349.07 256.61
  L 386.50 256.61
  A 0.86 0.86 0.0 0 0 387.36 255.75
  L 387.36 179.21
  A 0.31 0.31 0.0 0 0 387.05 178.90
  L 361.08 178.90
  Q 360.52 178.90 360.52 178.33
  L 360.52 162.52
  Q 360.52 161.94 361.09 161.94
  L 434.28 161.94
  A 0.59 0.59 0.0 0 1 434.87 162.53
  L 434.87 178.46
  A 0.44 0.43 90.0 0 1 434.44 178.90
  L 408.62 178.90
  Q 408.14 178.90 408.14 179.38
  L 408.14 256.22
  Q 408.14 256.54 408.46 256.54
  L 446.54 256.54
  Q 447.11 256.54 447.11 255.97
  L 447.11 162.54
  Q 447.11 161.91 447.74 161.91
  L 500.26 161.91
  A 1.08 1.08 0.0 0 1 501.34 162.99
  L 501.34 178.28
  A 0.63 0.63 0.0 0 1 500.71 178.91
  L 467.97 178.91
  A 0.38 0.38 0.0 0 0 467.59 179.29
  L 467.59 200.22
  Q 467.59 200.59 467.96 200.59
  L 498.10 200.59
  A 0.64 0.64 0.0 0 1 498.74 201.23
  L 498.74 216.77
  Q 498.74 217.28 498.23 217.28
  L 468.03 217.28
  Q 467.59 217.28 467.59 217.72
  L 467.59 239.01
  Q 467.59 239.68 468.25 239.68
  L 503.06 239.68
  Q 503.44 239.68 503.44 240.06
  L 503.44 255.96
  Q 503.44 256.63 504.11 256.63
  L 518.41 256.63
  Q 518.96 256.63 518.96 256.09
  L 518.96 162.49
  Q 518.96 161.94 519.51 161.94
  Q 538.97 161.74 553.77 161.94
  Q 563.97 162.08 571.53 165.04
  Q 584.64 170.17 585.82 184.54
  Q 586.28 190.17 585.04 195.11
  Q 583.79 200.12 580.32 204.31
  Q 574.75 211.03 565.96 213.65
  A 0.23 0.22 52.5 0 0 565.91 214.06
  Q 572.55 218.06 576.84 224.53
  Q 579.26 228.17 579.34 228.30
  Q 581.47 231.36 583.36 234.59
  Q 584.05 235.78 585.52 237.80
  Q 587.16 240.04 587.57 241.12
  Q 587.95 242.12 589.11 243.50
  Q 589.69 244.19 590.58 245.89
  Q 591.23 247.14 592.78 249.25
  Q 593.51 250.24 594.83 252.53
  Q 596.00 254.56 597.31 256.19
  Q 597.60 256.56 598.07 256.56
  L 920.23 256.56
  A 0.53 0.52 90.0 0 0 920.75 256.03
  L 920.75 159.59
  A 0.47 0.47 0.0 0 0 920.28 159.12
  L 866.07 159.12
  Q 865.46 159.12 865.46 158.51
  L 865.46 65.80
  Q 865.46 65.33 865.00 65.32
  Q 850.55 65.02 837.84 65.40
  Q 836.79 65.43 837.81 65.70
  L 842.89 67.06
  Q 843.40 67.19 843.40 67.72
  L 843.40 86.31
  A 0.41 0.41 0.0 0 1 842.80 86.68
  Q 837.67 84.10 831.78 82.16
  Q 828.64 81.13 825.24 81.00
  Q 824.24 80.96 818.51 80.59
  Q 813.94 80.29 808.69 81.43
  Q 803.31 82.59 799.65 85.02
  Q 792.36 89.85 789.03 97.76
  Q 784.79 107.80 786.59 119.30
  Q 789.39 137.29 805.74 142.46
  Q 808.97 143.48 813.05 143.44
  Q 817.62 143.39 820.57 142.99
  Q 823.84 142.54 826.55 141.14
  Q 826.96 140.93 826.96 140.48
  L 826.96 122.66
  Q 826.96 122.12 826.42 122.12
  L 808.24 122.12
  A 0.43 0.43 0.0 0 1 807.81 121.69
  L 807.81 106.18
  Q 807.81 105.67 808.32 105.67
  L 846.75 105.67
  Q 847.34 105.67 847.34 106.26
  L 847.34 152.28
  Q 847.34 152.81 846.88 153.06
  Q 840.41 156.70 833.23 158.46
  Q 819.17 161.89 805.07 160.41
  Q 798.75 159.74 796.71 158.68
  Q 795.76 158.18 795.05 158.12
  Q 793.63 158.00 793.45 157.94
  Q 790.52 157.00 787.88 155.51
  Q 787.22 155.13 785.89 154.37
  Q 771.15 145.90 766.76 130.12
  Q 763.31 117.71 764.97 105.28
  Q 768.32 80.27 790.48 68.69
  Q 794.70 66.49 798.44 65.85
  Q 799.63 65.65 798.43 65.55
  Q 797.28 65.45 795.77 65.39
  Q 785.06 64.96 722.75 65.40
  Q 720.02 65.42 717.29 65.54
  Q 717.26 65.54 717.26 65.55
  Q 717.26 65.58 717.25 65.64
  Q 717.23 65.74 717.33 65.74
  Q 730.02 66.88 739.97 74.33
  Q 741.82 75.71 744.04 78.10
  Q 746.80 81.08 747.52 82.33
  Q 752.34 90.79 753.62 98.37
  Q 754.72 104.88 754.35 116.54
  Q 754.34 116.90 754.11 117.38
  A 1.74 1.69 -35.1 0 0 753.94 118.28
  Q 754.18 121.51 752.13 127.64
  Q 746.99 142.94 734.21 150.91
  Q 732.41 152.03 730.37 153.28
  Q 728.69 154.30 726.28 155.14
  Q 722.11 156.60 720.31 157.22
  Q 718.30 157.91 716.28 158.18
  Q 715.55 158.27 712.11 158.70
  Q 709.16 159.06 705.87 159.08
  Q 694.56 159.16 671.94 159.11
  A 0.58 0.57 0.5 0 1 671.37 158.54
  L 671.37 65.79
  Q 671.37 65.22 670.80 65.22
  L 655.05 65.22
  Q 654.56 65.22 654.56 65.71
  L 654.56 80.94
  Q 654.56 81.45 654.06 81.45
  L 621.71 81.45
  A 0.58 0.58 0.0 0 0 621.13 82.04
  Q 621.26 92.56 621.01 102.36
  Q 621.00 102.98 621.18 103.15
  Q 621.55 103.49 622.00 103.25
  Q 622.35 103.06 622.75 103.06
  L 651.44 103.06
  Q 652.19 103.06 652.19 103.81
  L 652.19 119.55
  Q 652.19 120.04 651.71 120.04
  L 621.42 120.04
  A 0.30 0.30 0.0 0 0 621.12 120.34
  L 621.12 142.02
  Q 621.12 142.41 621.51 142.41
  L 656.04 142.41
  Q 656.66 142.41 656.66 143.04
  L 656.66 158.85
  A 0.27 0.27 0.0 0 1 656.39 159.12
  L 601.00 159.12
  A 0.62 0.61 -90.0 0 1 600.39 158.50
  L 600.39 65.80
  Q 600.39 65.22 599.80 65.22
  L 552.53 65.22
  A 0.25 0.25 0.0 0 0 552.28 65.47
  L 552.28 141.97
  Q 552.28 142.41 552.72 142.41
  L 586.95 142.41
  A 0.55 0.54 -0.0 0 1 587.50 142.95
  L 587.50 158.50
  Q 587.50 159.12 586.88 159.12
  L 532.30 159.12
  Q 531.73 159.12 531.73 158.54
  L 531.73 65.74
  Q 531.73 65.22 531.20 65.22
  L 521.01 65.22
  A 0.71 0.71 0.0 0 0 520.32 65.75
  L 495.56 158.51
  Q 495.39 159.12 494.76 159.12
  L 473.24 159.12
  Q 472.74 159.12 472.61 158.63
  L 455.17 93.21
  Q 454.96 92.42 454.75 93.21
  L 437.29 158.58
  Q 437.15 159.12 436.60 159.12
  L 414.02 159.12
  Q 413.42 159.12 413.26 158.54
  L 388.51 65.69
  A 0.62 0.62 0.0 0 0 387.91 65.23
  Q 378.93 65.19 356.75 65.25
  Q 354.92 65.25 352.69 65.50
  Q 351.67 65.61 352.67 65.82
  C 354.24 66.15 355.77 66.48 357.38 67.31
  Q 371.74 74.78 378.02 89.94
  Q 380.97 97.07 381.51 105.57
  Q 382.10 114.87 381.05 121.75
  Q 379.35 132.80 373.38 141.64
  Q 368.84 148.36 361.85 153.32
  Q 360.55 154.24 357.73 155.67
  Q 355.29 156.91 353.50 157.92
  Q 352.41 158.54 350.83 158.82
  Q 348.29 159.27 348.22 159.28
  Q 335.84 162.39 323.41 159.56
  Q 323.31 159.54 319.88 158.97
  Q 317.87 158.64 316.38 157.65
  Q 314.12 156.16 312.30 155.28
  Q 309.24 153.81 308.33 153.10"
/>
<path stroke="#747474" vector-effect="non-scaling-stroke" d="
  M 227.33 87.15
  Q 238.96 105.06 252.55 125.73
  Q 253.08 126.54 253.79 127.89
  Q 254.95 130.10 255.01 130.16
  Q 255.11 130.31 255.11 130.10
  L 255.08 65.79
  A 0.55 0.55 0.0 0 0 254.54 65.25
  L 213.70 65.16
  A 0.33 0.33 0.0 0 0 213.42 65.67
  Q 225.49 84.30 227.33 87.15"
/>
<path stroke="#747474" vector-effect="non-scaling-stroke" d="
  M 418.63 100.43
  Q 419.40 104.66 420.69 108.82
  Q 420.90 109.51 420.87 110.22
  Q 420.82 111.29 420.91 111.64
  Q 424.35 124.22 426.04 136.85
  Q 426.22 138.13 426.36 136.84
  Q 426.75 133.39 427.85 128.99
  Q 429.16 123.79 443.02 73.13
  Q 444.23 68.72 445.33 65.78
  A 0.42 0.42 0.0 0 0 444.94 65.22
  L 411.57 65.22
  A 0.50 0.49 83.8 0 0 411.09 65.82
  Q 415.06 84.05 415.35 85.50
  Q 416.12 89.27 417.12 92.98
  Q 417.60 94.77 418.63 100.43"
/>
<path stroke="#747474" vector-effect="non-scaling-stroke" d="
  M 482.73 127.15
  Q 483.93 132.71 484.31 134.82
  Q 484.38 135.16 484.34 135.65
  Q 484.29 136.30 484.36 136.51
  Q 484.76 137.79 484.89 136.44
  Q 485.47 130.15 487.02 123.36
  Q 488.75 115.74 488.78 115.60
  Q 492.56 97.53 494.30 89.61
  Q 497.86 73.35 499.34 65.70
  Q 499.43 65.22 498.94 65.22
  L 468.02 65.22
  Q 467.47 65.22 467.59 65.75
  Q 473.94 92.02 475.76 99.31
  Q 476.01 100.32 476.68 102.92
  Q 482.06 124.07 482.73 127.15"
/>
<path stroke="#747474" vector-effect="non-scaling-stroke" d="
  M 918.86 81.47
  L 886.56 81.47
  A 0.41 0.40 0.0 0 0 886.15 81.87
  L 886.15 103.01
  A 0.35 0.35 0.0 0 0 886.50 103.36
  L 916.98 103.36
  A 0.36 0.35 90.0 0 1 917.33 103.72
  L 917.33 119.60
  A 0.43 0.43 0.0 0 1 916.90 120.03
  L 886.77 120.03
  Q 886.14 120.03 886.14 120.67
  L 886.14 141.78
  Q 886.14 142.39 886.75 142.39
  L 920.48 142.39
  Q 920.91 142.39 920.91 141.97
  L 920.91 65.72
  A 0.50 0.50 0.0 0 0 920.41 65.22
  L 920.13 65.22
  Q 919.48 65.22 919.48 65.88
  L 919.48 80.85
  Q 919.48 81.47 918.86 81.47"
/>
<path stroke="#747474" vector-effect="non-scaling-stroke" d="
  M 310.98 111.84
  Q 310.95 117.96 312.98 124.86
  Q 316.63 137.23 328.05 141.85
  Q 329.73 142.53 331.89 142.62
  C 335.02 142.75 339.09 142.92 342.05 142.18
  Q 350.96 139.93 355.69 131.51
  Q 358.29 126.89 358.98 123.46
  Q 360.17 117.56 360.20 112.11
  Q 360.23 106.65 359.10 100.74
  Q 358.45 97.31 355.90 92.66
  Q 351.26 84.19 342.38 81.84
  C 339.43 81.07 335.36 81.19 332.22 81.29
  Q 330.06 81.36 328.38 82.02
  Q 316.91 86.51 313.12 98.84
  Q 311.01 105.72 310.98 111.84"
/>
<path stroke="#747474" vector-effect="non-scaling-stroke" d="
  M 692.16 81.69
  L 692.16 142.03
  A 0.29 0.29 0.0 0 0 692.45 142.32
  L 704.04 142.32
  A 28.86 28.42 -0.0 0 0 732.90 113.90
  L 732.90 109.82
  A 28.86 28.42 0.0 0 0 704.04 81.40
  L 692.45 81.40
  A 0.29 0.29 0.0 0 0 692.16 81.69"
/>
<path stroke="#747474" vector-effect="non-scaling-stroke" d="
  M 547.70 204.74
  C 558.48 204.91 567.58 195.83 563.35 184.74
  Q 562.35 182.11 560.41 180.74
  Q 556.40 177.91 551.24 177.68
  Q 547.06 177.49 539.92 177.60
  Q 539.37 177.61 539.37 178.17
  L 539.37 203.88
  A 0.70 0.70 0.0 0 0 540.04 204.58
  Q 541.74 204.65 547.70 204.74"
/>
<path stroke="#747474" vector-effect="non-scaling-stroke" d="
  M 312.86 233.97
  Q 300.69 215.33 286.48 193.81
  Q 285.93 192.97 285.18 191.56
  Q 283.97 189.26 283.91 189.20
  Q 283.80 189.05 283.80 189.26
  L 283.98 256.31
  A 0.57 0.57 0.0 0 0 284.55 256.87
  L 327.12 256.87
  A 0.34 0.34 0.0 0 0 327.41 256.34
  Q 314.79 236.94 312.86 233.97"
/>
<path stroke="#747474" vector-effect="non-scaling-stroke" d="
  M 561.15 236.12
  Q 559.34 233.01 557.25 229.75
  Q 557.06 229.46 556.94 229.04
  Q 556.80 228.56 556.47 228.19
  Q 553.19 224.51 552.69 223.93
  C 548.70 219.35 544.92 220.15 539.77 220.11
  Q 539.37 220.10 539.37 220.51
  L 539.37 256.11
  A 0.39 0.39 0.0 0 0 539.76 256.50
  L 572.68 256.50
  A 0.37 0.37 0.0 0 0 573.01 255.95
  Q 569.10 248.96 564.94 242.51
  Q 564.07 241.16 561.15 236.12"
/>
<path stroke="#747474" vector-effect="non-scaling-stroke" d="
  M 105.07 256.71
  L 132.49 256.71
  Q 135.15 256.71 132.63 255.85
  Q 110.59 248.42 104.80 226.32
  Q 104.45 225.00 104.45 226.37
  L 104.45 256.09
  A 0.62 0.62 0.0 0 0 105.07 256.71"
/>
<path stroke="#747474" vector-effect="non-scaling-stroke" d="
  M 91.62 326.51
  Q 91.22 334.43 93.67 340.70
  Q 98.85 353.98 113.89 355.39
  Q 130.25 356.92 138.38 342.93
  Q 141.30 337.91 141.70 329.89
  Q 142.09 321.97 139.64 315.70
  Q 134.46 302.42 119.42 301.01
  Q 103.06 299.48 94.93 313.47
  Q 92.01 318.49 91.62 326.51"
/>
<path stroke="#747474" vector-effect="non-scaling-stroke" d="
  M 288.64 342.39
  Q 287.05 347.94 281.47 348.90
  Q 272.23 350.47 263.54 344.34
  A 0.15 0.15 0.0 0 0 263.30 344.46
  L 263.30 352.22
  Q 263.30 352.49 263.52 352.63
  Q 266.43 354.47 269.70 354.62
  Q 271.66 354.71 272.28 354.83
  C 274.56 355.26 276.30 355.53 278.70 355.18
  Q 281.22 354.82 283.07 354.68
  Q 285.98 354.46 287.29 353.78
  Q 290.89 351.89 292.55 350.28
  Q 294.32 348.57 295.13 345.80
  C 296.63 340.69 295.75 335.02 291.63 331.48
  Q 287.22 327.68 283.02 325.62
  Q 275.93 322.14 274.16 320.66
  Q 269.16 316.47 271.42 311.94
  Q 272.63 309.51 275.76 308.44
  C 281.89 306.35 287.63 307.38 293.48 310.55
  A 0.15 0.14 -76.4 0 0 293.69 310.42
  L 293.69 302.98
  Q 293.69 302.69 293.42 302.59
  Q 284.44 299.38 274.94 301.68
  Q 268.85 303.15 265.07 308.10
  Q 263.54 310.12 263.43 313.22
  Q 263.29 317.58 263.54 318.89
  C 264.49 323.91 270.39 327.35 275.11 330.07
  Q 275.77 330.45 277.25 331.01
  Q 278.46 331.47 279.51 332.20
  Q 280.74 333.05 282.80 333.97
  Q 286.32 335.55 288.24 339.73
  Q 288.95 341.29 288.64 342.39"
/>
<path stroke="#747474" vector-effect="non-scaling-stroke" d="
  M 172.90 325.18
  A 0.46 0.46 0.0 0 1 172.44 324.72
  L 172.44 308.72
  A 0.46 0.46 0.0 0 1 172.90 308.26
  L 192.18 308.26
  A 0.46 0.46 0.0 0 0 192.64 307.80
  L 192.64 302.23
  A 0.46 0.46 0.0 0 0 192.18 301.77
  L 165.70 301.77
  A 0.46 0.46 0.0 0 0 165.24 302.23
  L 165.24 354.18
  A 0.46 0.46 0.0 0 0 165.70 354.64
  L 171.93 354.64
  A 0.46 0.46 0.0 0 0 172.39 354.18
  L 172.39 332.11
  A 0.46 0.46 0.0 0 1 172.85 331.65
  L 190.71 331.65
  A 0.46 0.46 0.0 0 0 191.17 331.19
  L 191.17 325.64
  A 0.46 0.46 0.0 0 0 190.71 325.18
  L 172.90 325.18"
/>
<path stroke="#747474" vector-effect="non-scaling-stroke" d="
  M 223.62 308.24
  L 242.60 308.24
  Q 243.17 308.24 243.17 307.67
  L 243.18 302.41
  Q 243.17 301.73 242.48 301.73
  L 216.00 301.76
  A 0.22 0.22 0.0 0 0 215.78 301.98
  L 215.80 354.35
  A 0.36 0.36 0.0 0 0 216.16 354.71
  L 222.63 354.70
  Q 222.99 354.70 223.00 354.35
  L 222.97 332.29
  Q 222.97 331.69 223.57 331.69
  L 241.39 331.65
  Q 241.79 331.65 241.78 331.25
  L 241.73 325.78
  A 0.60 0.58 89.9 0 0 241.15 325.18
  L 223.28 325.19
  A 0.28 0.28 0.0 0 1 223.00 324.91
  L 222.93 308.93
  Q 222.93 308.24 223.62 308.24"
/>
<path stroke="#747474" vector-effect="non-scaling-stroke" d="
  M 327.21 302.11
  A 0.38 0.38 0.0 0 0 326.83 301.73
  L 320.31 301.73
  A 0.38 0.38 0.0 0 0 319.93 302.11
  L 319.93 354.27
  A 0.38 0.38 0.0 0 0 320.31 354.65
  L 326.83 354.65
  A 0.38 0.38 0.0 0 0 327.21 354.27
  L 327.21 302.11"
/>
<path stroke="#747474" vector-effect="non-scaling-stroke" d="
  M 367.27 354.67
  Q 368.97 354.67 370.59 354.65
  A 0.28 0.28 0.0 0 0 370.86 354.36
  L 370.94 308.90
  A 0.69 0.68 0.1 0 1 371.63 308.22
  L 385.60 308.24
  Q 386.14 308.24 386.15 307.70
  L 386.15 302.28
  Q 386.16 301.79 385.67 301.79
  Q 376.70 301.78 367.36 301.76
  Q 358.02 301.74 349.06 301.73
  Q 348.57 301.72 348.57 302.21
  L 348.56 307.63
  Q 348.56 308.17 349.10 308.17
  L 363.08 308.20
  A 0.69 0.68 0.1 0 1 363.76 308.88
  L 363.67 354.35
  A 0.28 0.28 0.0 0 0 363.94 354.63
  Q 365.56 354.67 367.27 354.67"
/>
<path stroke="#747474" vector-effect="non-scaling-stroke" d="
  M 415.22 324.50
  A 0.35 0.35 0.0 0 1 414.87 324.15
  L 414.87 308.56
  A 0.35 0.35 0.0 0 1 415.22 308.21
  L 434.74 308.21
  A 0.35 0.35 0.0 0 0 435.09 307.86
  L 435.09 302.11
  A 0.35 0.35 0.0 0 0 434.74 301.76
  L 407.95 301.76
  A 0.35 0.35 0.0 0 0 407.60 302.11
  L 407.60 354.33
  A 0.35 0.35 0.0 0 0 407.95 354.68
  L 435.84 354.68
  A 0.35 0.35 0.0 0 0 436.19 354.33
  L 436.19 348.62
  A 0.35 0.35 0.0 0 0 435.84 348.27
  L 414.95 348.27
  A 0.35 0.35 0.0 0 1 414.60 347.92
  L 414.60 331.10
  A 0.35 0.35 0.0 0 1 414.95 330.75
  L 433.10 330.75
  A 0.35 0.35 0.0 0 0 433.45 330.40
  L 433.45 324.85
  A 0.35 0.35 0.0 0 0 433.10 324.50
  L 415.22 324.50"
/>
<path stroke="#747474" vector-effect="non-scaling-stroke" d="
  M 532.02 326.02
  Q 539.56 322.24 539.78 314.53
  Q 539.87 311.15 538.60 308.64
  Q 537.23 305.94 534.28 303.99
  C 531.42 302.10 526.89 301.77 523.50 301.76
  Q 516.86 301.74 509.23 301.76
  Q 508.72 301.76 508.72 302.27
  L 508.72 354.22
  A 0.45 0.44 0.7 0 0 509.16 354.66
  Q 514.20 354.70 519.05 354.68
  C 526.90 354.63 531.34 354.97 536.64 351.03
  Q 540.19 348.40 541.39 344.76
  C 542.97 339.99 542.54 333.56 538.88 330.02
  Q 536.06 327.30 532.11 326.63
  Q 531.13 326.47 532.02 326.02"
/>
<path stroke="#747474" vector-effect="non-scaling-stroke" d="
  M 585.44 355.42
  Q 589.68 355.42 591.27 355.05
  C 602.54 352.43 605.44 343.45 605.48 333.01
  Q 605.54 318.50 605.56 302.18
  Q 605.56 301.78 605.16 301.78
  L 598.75 301.78
  Q 598.36 301.78 598.36 302.18
  Q 598.32 318.65 598.31 333.00
  C 598.30 339.57 596.79 346.23 589.75 348.49
  Q 588.88 348.77 585.46 348.77
  Q 582.03 348.76 581.16 348.48
  C 574.13 346.19 572.64 339.53 572.65 332.96
  Q 572.69 318.61 572.70 302.14
  Q 572.71 301.74 572.32 301.74
  L 565.91 301.72
  Q 565.51 301.71 565.50 302.11
  Q 565.47 318.43 565.48 332.94
  C 565.49 343.38 568.36 352.37 579.63 355.04
  Q 581.21 355.41 585.44 355.42"
/>
<path stroke="#747474" vector-effect="non-scaling-stroke" d="
  M 638.27 302.08
  A 0.34 0.34 0.0 0 0 637.93 301.74
  L 631.57 301.74
  A 0.34 0.34 0.0 0 0 631.23 302.08
  L 631.23 354.30
  A 0.34 0.34 0.0 0 0 631.57 354.64
  L 637.93 354.64
  A 0.34 0.34 0.0 0 0 638.27 354.30
  L 638.27 302.08"
/>
<path stroke="#747474" vector-effect="non-scaling-stroke" d="
  M 693.98 348.68
  A 0.39 0.39 0.0 0 0 693.59 348.29
  L 673.55 348.29
  A 0.39 0.39 0.0 0 1 673.16 347.90
  L 673.16 302.14
  A 0.39 0.39 0.0 0 0 672.77 301.75
  L 666.15 301.75
  A 0.39 0.39 0.0 0 0 665.76 302.14
  L 665.76 354.29
  A 0.39 0.39 0.0 0 0 666.15 354.68
  L 693.59 354.68
  A 0.39 0.39 0.0 0 0 693.98 354.29
  L 693.98 348.68"
/>
<path stroke="#747474" vector-effect="non-scaling-stroke" d="
  M 724.59 354.69
  Q 726.30 354.69 727.91 354.65
  A 0.28 0.28 0.0 0 0 728.19 354.37
  L 728.19 308.89
  A 0.69 0.68 0.0 0 1 728.88 308.21
  L 742.86 308.21
  Q 743.40 308.21 743.40 307.67
  L 743.40 302.25
  Q 743.40 301.76 742.91 301.76
  Q 733.95 301.76 724.60 301.76
  Q 715.26 301.76 706.29 301.75
  Q 705.81 301.75 705.81 302.24
  L 705.80 307.66
  Q 705.80 308.20 706.34 308.20
  L 720.32 308.21
  A 0.69 0.68 0.0 0 1 721.01 308.89
  L 720.99 354.37
  A 0.28 0.28 0.0 0 0 721.27 354.65
  Q 722.89 354.69 724.59 354.69"
/>
<path stroke="#747474" vector-effect="non-scaling-stroke" d="
  M 849.81 343.56
  L 822.78 302.13
  A 0.84 0.83 73.1 0 0 822.08 301.75
  L 814.26 301.75
  Q 813.77 301.75 813.77 302.24
  L 813.77 354.32
  Q 813.77 354.67 814.12 354.67
  L 820.71 354.67
  Q 821.11 354.67 821.11 354.28
  L 821.10 313.52
  Q 821.10 310.67 822.00 313.27
  Q 822.18 313.78 823.18 315.31
  Q 830.36 326.24 848.41 354.21
  Q 848.71 354.67 849.27 354.67
  L 856.72 354.67
  A 0.39 0.38 0.0 0 0 857.11 354.29
  L 857.11 302.06
  Q 857.11 301.77 856.82 301.77
  L 850.49 301.77
  Q 850.27 301.77 850.27 302.00
  L 850.27 343.43
  Q 850.27 344.26 849.81 343.56"
/>
<path stroke="#747474" vector-effect="non-scaling-stroke" d="
  M 902.52 328.41
  L 919.28 304.17
  A 1.54 1.53 -72.6 0 0 918.02 301.76
  L 881.51 301.76
  A 0.41 0.40 -90.0 0 0 881.11 302.17
  L 881.11 307.65
  A 0.39 0.39 0.0 0 0 881.50 308.04
  L 907.21 308.04
  A 0.67 0.67 0.0 0 1 907.77 309.09
  Q 896.51 325.47 878.93 351.35
  C 878.26 352.33 878.47 353.06 878.46 354.11
  Q 878.45 354.68 879.02 354.68
  L 918.11 354.68
  Q 918.46 354.68 918.46 354.32
  L 918.46 348.49
  Q 918.46 348.29 918.26 348.29
  L 890.00 348.29
  A 0.46 0.45 17.0 0 1 889.62 347.58
  Q 898.86 334.04 902.25 329.01
  Q 902.34 328.88 902.37 328.74
  Q 902.42 328.56 902.52 328.41"
/>
<path stroke="#747474" vector-effect="non-scaling-stroke" d="
  M 99.35 327.97
  Q 99.31 331.30 99.65 333.51
  Q 101.46 345.09 112.48 348.49
  Q 113.35 348.76 116.52 348.81
  Q 119.69 348.85 120.57 348.60
  Q 131.67 345.48 133.78 333.96
  Q 134.18 331.75 134.23 328.42
  Q 134.27 325.09 133.93 322.88
  Q 132.12 311.30 121.10 307.90
  Q 120.23 307.63 117.06 307.59
  Q 113.89 307.54 113.01 307.79
  Q 101.91 310.91 99.80 322.43
  Q 99.39 324.64 99.35 327.97"
/>
<path stroke="#747474" vector-effect="non-scaling-stroke" d="
  M 516.06 308.35
  L 516.08 323.61
  A 0.30 0.30 0.0 0 0 516.38 323.91
  L 523.12 323.90
  A 8.74 6.52 -0.1 0 0 531.85 317.37
  L 531.85 314.55
  A 8.74 6.52 -0.1 0 0 523.10 308.04
  L 516.36 308.05
  A 0.30 0.30 0.0 0 0 516.06 308.35"
/>
<path stroke="#747474" vector-effect="non-scaling-stroke" d="
  M 516.07 330.74
  L 516.17 348.02
  A 0.30 0.30 0.0 0 0 516.47 348.32
  L 524.62 348.27
  A 10.21 8.43 -0.3 0 0 534.78 339.79
  L 534.78 338.77
  A 10.21 8.43 -0.3 0 0 524.52 330.39
  L 516.37 330.44
  A 0.30 0.30 0.0 0 0 516.07 330.74"
/>
</g>
<path fill="#0e0e0e" d="
  M 1024.00 7.79
  L 1024.00 413.69
  L 0.83 413.71
  Q 0.35 413.71 0.35 413.24
  L 0.35 8.29
  A 0.48 0.47 -0.0 0 1 0.83 7.82
  L 1024.00 7.79
  Z
  M 146.12 75.37
  L 152.73 66.04
  Q 153.31 65.22 152.31 65.22
  L 124.60 65.22
  Q 124.18 65.22 124.18 65.64
  L 124.18 107.21
  Q 124.18 108.81 124.90 107.38
  C 125.40 106.39 125.72 105.36 126.46 104.26
  Q 136.03 90.20 145.68 76.20
  Q 145.79 76.04 145.84 75.87
  Q 145.88 75.71 146.12 75.37
  Z
  M 308.33 153.10
  Q 295.90 143.44 291.94 130.31
  Q 287.85 116.75 290.49 101.48
  Q 292.06 92.42 296.20 85.27
  Q 300.69 77.54 307.75 72.06
  Q 313.81 67.36 320.62 65.61
  Q 322.15 65.23 320.58 65.23
  L 275.18 65.23
  Q 274.67 65.23 274.67 65.74
  L 274.67 158.67
  A 0.45 0.44 -0.0 0 1 274.22 159.11
  L 253.98 159.11
  Q 253.41 159.11 253.12 158.67
  L 209.62 92.01
  Q 209.43 91.71 209.46 92.06
  Q 210.02 99.37 210.01 105.01
  Q 209.92 154.54 209.93 158.54
  Q 209.94 159.12 209.35 159.12
  L 191.06 159.12
  Q 190.33 159.12 190.33 158.39
  L 190.33 65.78
  Q 190.33 65.22 189.77 65.22
  L 178.45 65.22
  Q 177.90 65.22 177.58 65.65
  L 144.95 109.23
  A 0.92 0.91 45.6 0 0 144.94 110.32
  L 180.60 158.44
  A 0.41 0.41 0.0 0 1 180.27 159.10
  L 155.07 159.10
  A 0.43 0.43 0.0 0 1 154.72 158.92
  L 125.78 117.19
  Q 125.46 116.74 125.36 116.21
  Q 125.22 115.42 124.70 114.57
  Q 124.18 113.73 124.18 114.72
  L 124.18 158.58
  Q 124.18 159.12 123.64 159.12
  L 105.02 159.12
  Q 104.46 159.12 104.46 159.67
  L 104.46 196.16
  Q 104.46 197.70 104.83 196.20
  Q 109.22 178.46 124.79 168.11
  Q 127.09 166.59 131.69 164.51
  Q 137.33 161.97 138.99 161.86
  Q 141.78 161.67 143.55 161.33
  Q 146.56 160.76 148.05 160.69
  Q 162.41 159.97 171.04 162.16
  Q 172.24 162.47 176.09 163.84
  Q 176.58 164.01 176.58 164.53
  L 176.58 182.95
  A 0.71 0.71 0.0 0 1 175.51 183.57
  Q 170.67 180.78 166.31 179.76
  Q 161.22 178.58 156.58 178.30
  Q 150.13 177.92 144.04 180.24
  Q 143.80 180.33 143.31 180.39
  Q 142.55 180.48 142.53 180.48
  Q 130.38 185.73 126.31 198.30
  Q 125.41 201.07 125.20 203.85
  Q 125.12 204.91 124.67 209.51
  Q 124.21 214.17 126.18 221.10
  C 126.59 222.54 127.32 223.51 127.84 224.98
  Q 128.38 226.52 129.35 227.91
  Q 132.93 233.03 136.31 235.27
  Q 144.69 240.83 155.28 240.27
  Q 165.95 239.72 175.74 234.47
  A 0.58 0.57 76.0 0 1 176.58 234.98
  L 176.58 252.72
  Q 176.58 253.28 176.05 253.46
  L 167.73 256.18
  Q 166.89 256.45 167.75 256.69
  C 169.29 257.11 171.09 256.61 172.43 256.61
  Q 182.40 256.62 192.22 256.64
  A 0.41 0.41 0.0 0 0 192.63 256.23
  L 192.63 162.25
  A 0.38 0.38 0.0 0 1 193.01 161.87
  L 246.10 161.87
  A 0.62 0.62 0.0 0 1 246.72 162.49
  L 246.72 178.44
  A 0.46 0.46 0.0 0 1 246.26 178.90
  L 213.79 178.90
  A 0.55 0.55 0.0 0 0 213.24 179.45
  L 213.24 200.16
  Q 213.24 200.59 213.66 200.59
  L 243.95 200.59
  A 0.45 0.45 0.0 0 1 244.40 201.04
  L 244.40 216.82
  Q 244.40 217.28 243.94 217.28
  L 213.72 217.28
  Q 213.24 217.28 213.24 217.77
  L 213.24 239.08
  Q 213.24 239.68 213.83 239.68
  L 248.34 239.68
  A 0.66 0.66 0.0 0 1 249.00 240.34
  L 249.00 255.82
  A 0.81 0.80 90.0 0 0 249.80 256.63
  L 263.98 256.63
  A 0.36 0.36 0.0 0 0 264.34 256.27
  L 264.34 162.18
  A 0.31 0.31 0.0 0 1 264.65 161.87
  L 286.07 161.87
  Q 286.65 161.87 286.97 162.36
  L 293.68 172.65
  Q 293.94 173.05 294.10 173.50
  C 294.36 174.21 295.16 175.00 295.44 175.43
  Q 299.02 180.91 302.60 186.39
  Q 321.50 215.37 329.14 227.24
  Q 329.15 227.25 329.15 227.18
  L 329.09 162.54
  A 0.61 0.60 -90.0 0 1 329.69 161.93
  L 348.06 161.93
  Q 348.67 161.93 348.67 162.54
  L 348.67 256.20
  A 0.41 0.40 -90.0 0 0 349.07 256.61
  L 386.50 256.61
  A 0.86 0.86 0.0 0 0 387.36 255.75
  L 387.36 179.21
  A 0.31 0.31 0.0 0 0 387.05 178.90
  L 361.08 178.90
  Q 360.52 178.90 360.52 178.33
  L 360.52 162.52
  Q 360.52 161.94 361.09 161.94
  L 434.28 161.94
  A 0.59 0.59 0.0 0 1 434.87 162.53
  L 434.87 178.46
  A 0.44 0.43 90.0 0 1 434.44 178.90
  L 408.62 178.90
  Q 408.14 178.90 408.14 179.38
  L 408.14 256.22
  Q 408.14 256.54 408.46 256.54
  L 446.54 256.54
  Q 447.11 256.54 447.11 255.97
  L 447.11 162.54
  Q 447.11 161.91 447.74 161.91
  L 500.26 161.91
  A 1.08 1.08 0.0 0 1 501.34 162.99
  L 501.34 178.28
  A 0.63 0.63 0.0 0 1 500.71 178.91
  L 467.97 178.91
  A 0.38 0.38 0.0 0 0 467.59 179.29
  L 467.59 200.22
  Q 467.59 200.59 467.96 200.59
  L 498.10 200.59
  A 0.64 0.64 0.0 0 1 498.74 201.23
  L 498.74 216.77
  Q 498.74 217.28 498.23 217.28
  L 468.03 217.28
  Q 467.59 217.28 467.59 217.72
  L 467.59 239.01
  Q 467.59 239.68 468.25 239.68
  L 503.06 239.68
  Q 503.44 239.68 503.44 240.06
  L 503.44 255.96
  Q 503.44 256.63 504.11 256.63
  L 518.41 256.63
  Q 518.96 256.63 518.96 256.09
  L 518.96 162.49
  Q 518.96 161.94 519.51 161.94
  Q 538.97 161.74 553.77 161.94
  Q 563.97 162.08 571.53 165.04
  Q 584.64 170.17 585.82 184.54
  Q 586.28 190.17 585.04 195.11
  Q 583.79 200.12 580.32 204.31
  Q 574.75 211.03 565.96 213.65
  A 0.23 0.22 52.5 0 0 565.91 214.06
  Q 572.55 218.06 576.84 224.53
  Q 579.26 228.17 579.34 228.30
  Q 581.47 231.36 583.36 234.59
  Q 584.05 235.78 585.52 237.80
  Q 587.16 240.04 587.57 241.12
  Q 587.95 242.12 589.11 243.50
  Q 589.69 244.19 590.58 245.89
  Q 591.23 247.14 592.78 249.25
  Q 593.51 250.24 594.83 252.53
  Q 596.00 254.56 597.31 256.19
  Q 597.60 256.56 598.07 256.56
  L 920.23 256.56
  A 0.53 0.52 90.0 0 0 920.75 256.03
  L 920.75 159.59
  A 0.47 0.47 0.0 0 0 920.28 159.12
  L 866.07 159.12
  Q 865.46 159.12 865.46 158.51
  L 865.46 65.80
  Q 865.46 65.33 865.00 65.32
  Q 850.55 65.02 837.84 65.40
  Q 836.79 65.43 837.81 65.70
  L 842.89 67.06
  Q 843.40 67.19 843.40 67.72
  L 843.40 86.31
  A 0.41 0.41 0.0 0 1 842.80 86.68
  Q 837.67 84.10 831.78 82.16
  Q 828.64 81.13 825.24 81.00
  Q 824.24 80.96 818.51 80.59
  Q 813.94 80.29 808.69 81.43
  Q 803.31 82.59 799.65 85.02
  Q 792.36 89.85 789.03 97.76
  Q 784.79 107.80 786.59 119.30
  Q 789.39 137.29 805.74 142.46
  Q 808.97 143.48 813.05 143.44
  Q 817.62 143.39 820.57 142.99
  Q 823.84 142.54 826.55 141.14
  Q 826.96 140.93 826.96 140.48
  L 826.96 122.66
  Q 826.96 122.12 826.42 122.12
  L 808.24 122.12
  A 0.43 0.43 0.0 0 1 807.81 121.69
  L 807.81 106.18
  Q 807.81 105.67 808.32 105.67
  L 846.75 105.67
  Q 847.34 105.67 847.34 106.26
  L 847.34 152.28
  Q 847.34 152.81 846.88 153.06
  Q 840.41 156.70 833.23 158.46
  Q 819.17 161.89 805.07 160.41
  Q 798.75 159.74 796.71 158.68
  Q 795.76 158.18 795.05 158.12
  Q 793.63 158.00 793.45 157.94
  Q 790.52 157.00 787.88 155.51
  Q 787.22 155.13 785.89 154.37
  Q 771.15 145.90 766.76 130.12
  Q 763.31 117.71 764.97 105.28
  Q 768.32 80.27 790.48 68.69
  Q 794.70 66.49 798.44 65.85
  Q 799.63 65.65 798.43 65.55
  Q 797.28 65.45 795.77 65.39
  Q 785.06 64.96 722.75 65.40
  Q 720.02 65.42 717.29 65.54
  Q 717.26 65.54 717.26 65.55
  Q 717.26 65.58 717.25 65.64
  Q 717.23 65.74 717.33 65.74
  Q 730.02 66.88 739.97 74.33
  Q 741.82 75.71 744.04 78.10
  Q 746.80 81.08 747.52 82.33
  Q 752.34 90.79 753.62 98.37
  Q 754.72 104.88 754.35 116.54
  Q 754.34 116.90 754.11 117.38
  A 1.74 1.69 -35.1 0 0 753.94 118.28
  Q 754.18 121.51 752.13 127.64
  Q 746.99 142.94 734.21 150.91
  Q 732.41 152.03 730.37 153.28
  Q 728.69 154.30 726.28 155.14
  Q 722.11 156.60 720.31 157.22
  Q 718.30 157.91 716.28 158.18
  Q 715.55 158.27 712.11 158.70
  Q 709.16 159.06 705.87 159.08
  Q 694.56 159.16 671.94 159.11
  A 0.58 0.57 0.5 0 1 671.37 158.54
  L 671.37 65.79
  Q 671.37 65.22 670.80 65.22
  L 655.05 65.22
  Q 654.56 65.22 654.56 65.71
  L 654.56 80.94
  Q 654.56 81.45 654.06 81.45
  L 621.71 81.45
  A 0.58 0.58 0.0 0 0 621.13 82.04
  Q 621.26 92.56 621.01 102.36
  Q 621.00 102.98 621.18 103.15
  Q 621.55 103.49 622.00 103.25
  Q 622.35 103.06 622.75 103.06
  L 651.44 103.06
  Q 652.19 103.06 652.19 103.81
  L 652.19 119.55
  Q 652.19 120.04 651.71 120.04
  L 621.42 120.04
  A 0.30 0.30 0.0 0 0 621.12 120.34
  L 621.12 142.02
  Q 621.12 142.41 621.51 142.41
  L 656.04 142.41
  Q 656.66 142.41 656.66 143.04
  L 656.66 158.85
  A 0.27 0.27 0.0 0 1 656.39 159.12
  L 601.00 159.12
  A 0.62 0.61 -90.0 0 1 600.39 158.50
  L 600.39 65.80
  Q 600.39 65.22 599.80 65.22
  L 552.53 65.22
  A 0.25 0.25 0.0 0 0 552.28 65.47
  L 552.28 141.97
  Q 552.28 142.41 552.72 142.41
  L 586.95 142.41
  A 0.55 0.54 -0.0 0 1 587.50 142.95
  L 587.50 158.50
  Q 587.50 159.12 586.88 159.12
  L 532.30 159.12
  Q 531.73 159.12 531.73 158.54
  L 531.73 65.74
  Q 531.73 65.22 531.20 65.22
  L 521.01 65.22
  A 0.71 0.71 0.0 0 0 520.32 65.75
  L 495.56 158.51
  Q 495.39 159.12 494.76 159.12
  L 473.24 159.12
  Q 472.74 159.12 472.61 158.63
  L 455.17 93.21
  Q 454.96 92.42 454.75 93.21
  L 437.29 158.58
  Q 437.15 159.12 436.60 159.12
  L 414.02 159.12
  Q 413.42 159.12 413.26 158.54
  L 388.51 65.69
  A 0.62 0.62 0.0 0 0 387.91 65.23
  Q 378.93 65.19 356.75 65.25
  Q 354.92 65.25 352.69 65.50
  Q 351.67 65.61 352.67 65.82
  C 354.24 66.15 355.77 66.48 357.38 67.31
  Q 371.74 74.78 378.02 89.94
  Q 380.97 97.07 381.51 105.57
  Q 382.10 114.87 381.05 121.75
  Q 379.35 132.80 373.38 141.64
  Q 368.84 148.36 361.85 153.32
  Q 360.55 154.24 357.73 155.67
  Q 355.29 156.91 353.50 157.92
  Q 352.41 158.54 350.83 158.82
  Q 348.29 159.27 348.22 159.28
  Q 335.84 162.39 323.41 159.56
  Q 323.31 159.54 319.88 158.97
  Q 317.87 158.64 316.38 157.65
  Q 314.12 156.16 312.30 155.28
  Q 309.24 153.81 308.33 153.10
  Z
  M 227.33 87.15
  Q 238.96 105.06 252.55 125.73
  Q 253.08 126.54 253.79 127.89
  Q 254.95 130.10 255.01 130.16
  Q 255.11 130.31 255.11 130.10
  L 255.08 65.79
  A 0.55 0.55 0.0 0 0 254.54 65.25
  L 213.70 65.16
  A 0.33 0.33 0.0 0 0 213.42 65.67
  Q 225.49 84.30 227.33 87.15
  Z
  M 418.63 100.43
  Q 419.40 104.66 420.69 108.82
  Q 420.90 109.51 420.87 110.22
  Q 420.82 111.29 420.91 111.64
  Q 424.35 124.22 426.04 136.85
  Q 426.22 138.13 426.36 136.84
  Q 426.75 133.39 427.85 128.99
  Q 429.16 123.79 443.02 73.13
  Q 444.23 68.72 445.33 65.78
  A 0.42 0.42 0.0 0 0 444.94 65.22
  L 411.57 65.22
  A 0.50 0.49 83.8 0 0 411.09 65.82
  Q 415.06 84.05 415.35 85.50
  Q 416.12 89.27 417.12 92.98
  Q 417.60 94.77 418.63 100.43
  Z
  M 482.73 127.15
  Q 483.93 132.71 484.31 134.82
  Q 484.38 135.16 484.34 135.65
  Q 484.29 136.30 484.36 136.51
  Q 484.76 137.79 484.89 136.44
  Q 485.47 130.15 487.02 123.36
  Q 488.75 115.74 488.78 115.60
  Q 492.56 97.53 494.30 89.61
  Q 497.86 73.35 499.34 65.70
  Q 499.43 65.22 498.94 65.22
  L 468.02 65.22
  Q 467.47 65.22 467.59 65.75
  Q 473.94 92.02 475.76 99.31
  Q 476.01 100.32 476.68 102.92
  Q 482.06 124.07 482.73 127.15
  Z
  M 918.86 81.47
  L 886.56 81.47
  A 0.41 0.40 0.0 0 0 886.15 81.87
  L 886.15 103.01
  A 0.35 0.35 0.0 0 0 886.50 103.36
  L 916.98 103.36
  A 0.36 0.35 90.0 0 1 917.33 103.72
  L 917.33 119.60
  A 0.43 0.43 0.0 0 1 916.90 120.03
  L 886.77 120.03
  Q 886.14 120.03 886.14 120.67
  L 886.14 141.78
  Q 886.14 142.39 886.75 142.39
  L 920.48 142.39
  Q 920.91 142.39 920.91 141.97
  L 920.91 65.72
  A 0.50 0.50 0.0 0 0 920.41 65.22
  L 920.13 65.22
  Q 919.48 65.22 919.48 65.88
  L 919.48 80.85
  Q 919.48 81.47 918.86 81.47
  Z
  M 310.98 111.84
  Q 310.95 117.96 312.98 124.86
  Q 316.63 137.23 328.05 141.85
  Q 329.73 142.53 331.89 142.62
  C 335.02 142.75 339.09 142.92 342.05 142.18
  Q 350.96 139.93 355.69 131.51
  Q 358.29 126.89 358.98 123.46
  Q 360.17 117.56 360.20 112.11
  Q 360.23 106.65 359.10 100.74
  Q 358.45 97.31 355.90 92.66
  Q 351.26 84.19 342.38 81.84
  C 339.43 81.07 335.36 81.19 332.22 81.29
  Q 330.06 81.36 328.38 82.02
  Q 316.91 86.51 313.12 98.84
  Q 311.01 105.72 310.98 111.84
  Z
  M 692.16 81.69
  L 692.16 142.03
  A 0.29 0.29 0.0 0 0 692.45 142.32
  L 704.04 142.32
  A 28.86 28.42 -0.0 0 0 732.90 113.90
  L 732.90 109.82
  A 28.86 28.42 0.0 0 0 704.04 81.40
  L 692.45 81.40
  A 0.29 0.29 0.0 0 0 692.16 81.69
  Z
  M 547.70 204.74
  C 558.48 204.91 567.58 195.83 563.35 184.74
  Q 562.35 182.11 560.41 180.74
  Q 556.40 177.91 551.24 177.68
  Q 547.06 177.49 539.92 177.60
  Q 539.37 177.61 539.37 178.17
  L 539.37 203.88
  A 0.70 0.70 0.0 0 0 540.04 204.58
  Q 541.74 204.65 547.70 204.74
  Z
  M 312.86 233.97
  Q 300.69 215.33 286.48 193.81
  Q 285.93 192.97 285.18 191.56
  Q 283.97 189.26 283.91 189.20
  Q 283.80 189.05 283.80 189.26
  L 283.98 256.31
  A 0.57 0.57 0.0 0 0 284.55 256.87
  L 327.12 256.87
  A 0.34 0.34 0.0 0 0 327.41 256.34
  Q 314.79 236.94 312.86 233.97
  Z
  M 561.15 236.12
  Q 559.34 233.01 557.25 229.75
  Q 557.06 229.46 556.94 229.04
  Q 556.80 228.56 556.47 228.19
  Q 553.19 224.51 552.69 223.93
  C 548.70 219.35 544.92 220.15 539.77 220.11
  Q 539.37 220.10 539.37 220.51
  L 539.37 256.11
  A 0.39 0.39 0.0 0 0 539.76 256.50
  L 572.68 256.50
  A 0.37 0.37 0.0 0 0 573.01 255.95
  Q 569.10 248.96 564.94 242.51
  Q 564.07 241.16 561.15 236.12
  Z
  M 105.07 256.71
  L 132.49 256.71
  Q 135.15 256.71 132.63 255.85
  Q 110.59 248.42 104.80 226.32
  Q 104.45 225.00 104.45 226.37
  L 104.45 256.09
  A 0.62 0.62 0.0 0 0 105.07 256.71
  Z
  M 91.62 326.51
  Q 91.22 334.43 93.67 340.70
  Q 98.85 353.98 113.89 355.39
  Q 130.25 356.92 138.38 342.93
  Q 141.30 337.91 141.70 329.89
  Q 142.09 321.97 139.64 315.70
  Q 134.46 302.42 119.42 301.01
  Q 103.06 299.48 94.93 313.47
  Q 92.01 318.49 91.62 326.51
  Z
  M 288.64 342.39
  Q 287.05 347.94 281.47 348.90
  Q 272.23 350.47 263.54 344.34
  A 0.15 0.15 0.0 0 0 263.30 344.46
  L 263.30 352.22
  Q 263.30 352.49 263.52 352.63
  Q 266.43 354.47 269.70 354.62
  Q 271.66 354.71 272.28 354.83
  C 274.56 355.26 276.30 355.53 278.70 355.18
  Q 281.22 354.82 283.07 354.68
  Q 285.98 354.46 287.29 353.78
  Q 290.89 351.89 292.55 350.28
  Q 294.32 348.57 295.13 345.80
  C 296.63 340.69 295.75 335.02 291.63 331.48
  Q 287.22 327.68 283.02 325.62
  Q 275.93 322.14 274.16 320.66
  Q 269.16 316.47 271.42 311.94
  Q 272.63 309.51 275.76 308.44
  C 281.89 306.35 287.63 307.38 293.48 310.55
  A 0.15 0.14 -76.4 0 0 293.69 310.42
  L 293.69 302.98
  Q 293.69 302.69 293.42 302.59
  Q 284.44 299.38 274.94 301.68
  Q 268.85 303.15 265.07 308.10
  Q 263.54 310.12 263.43 313.22
  Q 263.29 317.58 263.54 318.89
  C 264.49 323.91 270.39 327.35 275.11 330.07
  Q 275.77 330.45 277.25 331.01
  Q 278.46 331.47 279.51 332.20
  Q 280.74 333.05 282.80 333.97
  Q 286.32 335.55 288.24 339.73
  Q 288.95 341.29 288.64 342.39
  Z
  M 172.90 325.18
  A 0.46 0.46 0.0 0 1 172.44 324.72
  L 172.44 308.72
  A 0.46 0.46 0.0 0 1 172.90 308.26
  L 192.18 308.26
  A 0.46 0.46 0.0 0 0 192.64 307.80
  L 192.64 302.23
  A 0.46 0.46 0.0 0 0 192.18 301.77
  L 165.70 301.77
  A 0.46 0.46 0.0 0 0 165.24 302.23
  L 165.24 354.18
  A 0.46 0.46 0.0 0 0 165.70 354.64
  L 171.93 354.64
  A 0.46 0.46 0.0 0 0 172.39 354.18
  L 172.39 332.11
  A 0.46 0.46 0.0 0 1 172.85 331.65
  L 190.71 331.65
  A 0.46 0.46 0.0 0 0 191.17 331.19
  L 191.17 325.64
  A 0.46 0.46 0.0 0 0 190.71 325.18
  L 172.90 325.18
  Z
  M 223.62 308.24
  L 242.60 308.24
  Q 243.17 308.24 243.17 307.67
  L 243.18 302.41
  Q 243.17 301.73 242.48 301.73
  L 216.00 301.76
  A 0.22 0.22 0.0 0 0 215.78 301.98
  L 215.80 354.35
  A 0.36 0.36 0.0 0 0 216.16 354.71
  L 222.63 354.70
  Q 222.99 354.70 223.00 354.35
  L 222.97 332.29
  Q 222.97 331.69 223.57 331.69
  L 241.39 331.65
  Q 241.79 331.65 241.78 331.25
  L 241.73 325.78
  A 0.60 0.58 89.9 0 0 241.15 325.18
  L 223.28 325.19
  A 0.28 0.28 0.0 0 1 223.00 324.91
  L 222.93 308.93
  Q 222.93 308.24 223.62 308.24
  Z
  M 327.21 302.11
  A 0.38 0.38 0.0 0 0 326.83 301.73
  L 320.31 301.73
  A 0.38 0.38 0.0 0 0 319.93 302.11
  L 319.93 354.27
  A 0.38 0.38 0.0 0 0 320.31 354.65
  L 326.83 354.65
  A 0.38 0.38 0.0 0 0 327.21 354.27
  L 327.21 302.11
  Z
  M 367.27 354.67
  Q 368.97 354.67 370.59 354.65
  A 0.28 0.28 0.0 0 0 370.86 354.36
  L 370.94 308.90
  A 0.69 0.68 0.1 0 1 371.63 308.22
  L 385.60 308.24
  Q 386.14 308.24 386.15 307.70
  L 386.15 302.28
  Q 386.16 301.79 385.67 301.79
  Q 376.70 301.78 367.36 301.76
  Q 358.02 301.74 349.06 301.73
  Q 348.57 301.72 348.57 302.21
  L 348.56 307.63
  Q 348.56 308.17 349.10 308.17
  L 363.08 308.20
  A 0.69 0.68 0.1 0 1 363.76 308.88
  L 363.67 354.35
  A 0.28 0.28 0.0 0 0 363.94 354.63
  Q 365.56 354.67 367.27 354.67
  Z
  M 415.22 324.50
  A 0.35 0.35 0.0 0 1 414.87 324.15
  L 414.87 308.56
  A 0.35 0.35 0.0 0 1 415.22 308.21
  L 434.74 308.21
  A 0.35 0.35 0.0 0 0 435.09 307.86
  L 435.09 302.11
  A 0.35 0.35 0.0 0 0 434.74 301.76
  L 407.95 301.76
  A 0.35 0.35 0.0 0 0 407.60 302.11
  L 407.60 354.33
  A 0.35 0.35 0.0 0 0 407.95 354.68
  L 435.84 354.68
  A 0.35 0.35 0.0 0 0 436.19 354.33
  L 436.19 348.62
  A 0.35 0.35 0.0 0 0 435.84 348.27
  L 414.95 348.27
  A 0.35 0.35 0.0 0 1 414.60 347.92
  L 414.60 331.10
  A 0.35 0.35 0.0 0 1 414.95 330.75
  L 433.10 330.75
  A 0.35 0.35 0.0 0 0 433.45 330.40
  L 433.45 324.85
  A 0.35 0.35 0.0 0 0 433.10 324.50
  L 415.22 324.50
  Z
  M 532.02 326.02
  Q 539.56 322.24 539.78 314.53
  Q 539.87 311.15 538.60 308.64
  Q 537.23 305.94 534.28 303.99
  C 531.42 302.10 526.89 301.77 523.50 301.76
  Q 516.86 301.74 509.23 301.76
  Q 508.72 301.76 508.72 302.27
  L 508.72 354.22
  A 0.45 0.44 0.7 0 0 509.16 354.66
  Q 514.20 354.70 519.05 354.68
  C 526.90 354.63 531.34 354.97 536.64 351.03
  Q 540.19 348.40 541.39 344.76
  C 542.97 339.99 542.54 333.56 538.88 330.02
  Q 536.06 327.30 532.11 326.63
  Q 531.13 326.47 532.02 326.02
  Z
  M 585.44 355.42
  Q 589.68 355.42 591.27 355.05
  C 602.54 352.43 605.44 343.45 605.48 333.01
  Q 605.54 318.50 605.56 302.18
  Q 605.56 301.78 605.16 301.78
  L 598.75 301.78
  Q 598.36 301.78 598.36 302.18
  Q 598.32 318.65 598.31 333.00
  C 598.30 339.57 596.79 346.23 589.75 348.49
  Q 588.88 348.77 585.46 348.77
  Q 582.03 348.76 581.16 348.48
  C 574.13 346.19 572.64 339.53 572.65 332.96
  Q 572.69 318.61 572.70 302.14
  Q 572.71 301.74 572.32 301.74
  L 565.91 301.72
  Q 565.51 301.71 565.50 302.11
  Q 565.47 318.43 565.48 332.94
  C 565.49 343.38 568.36 352.37 579.63 355.04
  Q 581.21 355.41 585.44 355.42
  Z
  M 638.27 302.08
  A 0.34 0.34 0.0 0 0 637.93 301.74
  L 631.57 301.74
  A 0.34 0.34 0.0 0 0 631.23 302.08
  L 631.23 354.30
  A 0.34 0.34 0.0 0 0 631.57 354.64
  L 637.93 354.64
  A 0.34 0.34 0.0 0 0 638.27 354.30
  L 638.27 302.08
  Z
  M 693.98 348.68
  A 0.39 0.39 0.0 0 0 693.59 348.29
  L 673.55 348.29
  A 0.39 0.39 0.0 0 1 673.16 347.90
  L 673.16 302.14
  A 0.39 0.39 0.0 0 0 672.77 301.75
  L 666.15 301.75
  A 0.39 0.39 0.0 0 0 665.76 302.14
  L 665.76 354.29
  A 0.39 0.39 0.0 0 0 666.15 354.68
  L 693.59 354.68
  A 0.39 0.39 0.0 0 0 693.98 354.29
  L 693.98 348.68
  Z
  M 724.59 354.69
  Q 726.30 354.69 727.91 354.65
  A 0.28 0.28 0.0 0 0 728.19 354.37
  L 728.19 308.89
  A 0.69 0.68 0.0 0 1 728.88 308.21
  L 742.86 308.21
  Q 743.40 308.21 743.40 307.67
  L 743.40 302.25
  Q 743.40 301.76 742.91 301.76
  Q 733.95 301.76 724.60 301.76
  Q 715.26 301.76 706.29 301.75
  Q 705.81 301.75 705.81 302.24
  L 705.80 307.66
  Q 705.80 308.20 706.34 308.20
  L 720.32 308.21
  A 0.69 0.68 0.0 0 1 721.01 308.89
  L 720.99 354.37
  A 0.28 0.28 0.0 0 0 721.27 354.65
  Q 722.89 354.69 724.59 354.69
  Z
  M 849.81 343.56
  L 822.78 302.13
  A 0.84 0.83 73.1 0 0 822.08 301.75
  L 814.26 301.75
  Q 813.77 301.75 813.77 302.24
  L 813.77 354.32
  Q 813.77 354.67 814.12 354.67
  L 820.71 354.67
  Q 821.11 354.67 821.11 354.28
  L 821.10 313.52
  Q 821.10 310.67 822.00 313.27
  Q 822.18 313.78 823.18 315.31
  Q 830.36 326.24 848.41 354.21
  Q 848.71 354.67 849.27 354.67
  L 856.72 354.67
  A 0.39 0.38 0.0 0 0 857.11 354.29
  L 857.11 302.06
  Q 857.11 301.77 856.82 301.77
  L 850.49 301.77
  Q 850.27 301.77 850.27 302.00
  L 850.27 343.43
  Q 850.27 344.26 849.81 343.56
  Z
  M 902.52 328.41
  L 919.28 304.17
  A 1.54 1.53 -72.6 0 0 918.02 301.76
  L 881.51 301.76
  A 0.41 0.40 -90.0 0 0 881.11 302.17
  L 881.11 307.65
  A 0.39 0.39 0.0 0 0 881.50 308.04
  L 907.21 308.04
  A 0.67 0.67 0.0 0 1 907.77 309.09
  Q 896.51 325.47 878.93 351.35
  C 878.26 352.33 878.47 353.06 878.46 354.11
  Q 878.45 354.68 879.02 354.68
  L 918.11 354.68
  Q 918.46 354.68 918.46 354.32
  L 918.46 348.49
  Q 918.46 348.29 918.26 348.29
  L 890.00 348.29
  A 0.46 0.45 17.0 0 1 889.62 347.58
  Q 898.86 334.04 902.25 329.01
  Q 902.34 328.88 902.37 328.74
  Q 902.42 328.56 902.52 328.41
  Z"
/>
<path fill="#dadada" d="
  M 145.84 75.87
  Q 145.79 76.04 145.68 76.20
  Q 136.03 90.20 126.46 104.26
  C 125.72 105.36 125.40 106.39 124.90 107.38
  Q 124.18 108.81 124.18 107.21
  L 124.18 65.64
  Q 124.18 65.22 124.60 65.22
  L 152.31 65.22
  Q 153.31 65.22 152.73 66.04
  L 146.12 75.37
  Q 145.88 75.71 145.84 75.87
  Z"
/>
<path fill="#dadada" d="
  M 312.30 155.28
  Q 314.12 156.16 316.38 157.65
  Q 317.87 158.64 319.88 158.97
  Q 323.31 159.54 323.41 159.56
  Q 335.84 162.39 348.22 159.28
  Q 348.29 159.27 350.83 158.82
  Q 352.41 158.54 353.50 157.92
  Q 355.29 156.91 357.73 155.67
  Q 360.55 154.24 361.85 153.32
  Q 368.84 148.36 373.38 141.64
  Q 379.35 132.80 381.05 121.75
  Q 382.10 114.87 381.51 105.57
  Q 380.97 97.07 378.02 89.94
  Q 371.74 74.78 357.38 67.31
  C 355.77 66.48 354.24 66.15 352.67 65.82
  Q 351.67 65.61 352.69 65.50
  Q 354.92 65.25 356.75 65.25
  Q 378.93 65.19 387.91 65.23
  A 0.62 0.62 0.0 0 1 388.51 65.69
  L 413.26 158.54
  Q 413.42 159.12 414.02 159.12
  L 436.60 159.12
  Q 437.15 159.12 437.29 158.58
  L 454.75 93.21
  Q 454.96 92.42 455.17 93.21
  L 472.61 158.63
  Q 472.74 159.12 473.24 159.12
  L 494.76 159.12
  Q 495.39 159.12 495.56 158.51
  L 520.32 65.75
  A 0.71 0.71 0.0 0 1 521.01 65.22
  L 531.20 65.22
  Q 531.73 65.22 531.73 65.74
  L 531.73 158.54
  Q 531.73 159.12 532.30 159.12
  L 586.88 159.12
  Q 587.50 159.12 587.50 158.50
  L 587.50 142.95
  A 0.55 0.54 -0.0 0 0 586.95 142.41
  L 552.72 142.41
  Q 552.28 142.41 552.28 141.97
  L 552.28 65.47
  A 0.25 0.25 0.0 0 1 552.53 65.22
  L 599.80 65.22
  Q 600.39 65.22 600.39 65.80
  L 600.39 158.50
  A 0.62 0.61 90.0 0 0 601.00 159.12
  L 656.39 159.12
  A 0.27 0.27 0.0 0 0 656.66 158.85
  L 656.66 143.04
  Q 656.66 142.41 656.04 142.41
  L 621.51 142.41
  Q 621.12 142.41 621.12 142.02
  L 621.12 120.34
  A 0.30 0.30 0.0 0 1 621.42 120.04
  L 651.71 120.04
  Q 652.19 120.04 652.19 119.55
  L 652.19 103.81
  Q 652.19 103.06 651.44 103.06
  L 622.75 103.06
  Q 622.35 103.06 622.00 103.25
  Q 621.55 103.49 621.18 103.15
  Q 621.00 102.98 621.01 102.36
  Q 621.26 92.56 621.13 82.04
  A 0.58 0.58 0.0 0 1 621.71 81.45
  L 654.06 81.45
  Q 654.56 81.45 654.56 80.94
  L 654.56 65.71
  Q 654.56 65.22 655.05 65.22
  L 670.80 65.22
  Q 671.37 65.22 671.37 65.79
  L 671.37 158.54
  A 0.58 0.57 0.5 0 0 671.94 159.11
  Q 694.56 159.16 705.87 159.08
  Q 709.16 159.06 712.11 158.70
  Q 715.55 158.27 716.28 158.18
  Q 718.30 157.91 720.31 157.22
  Q 722.11 156.60 726.28 155.14
  Q 728.69 154.30 730.37 153.28
  Q 732.41 152.03 734.21 150.91
  Q 746.99 142.94 752.13 127.64
  Q 754.18 121.51 753.94 118.28
  A 1.74 1.69 -35.1 0 1 754.11 117.38
  Q 754.34 116.90 754.35 116.54
  Q 754.72 104.88 753.62 98.37
  Q 752.34 90.79 747.52 82.33
  Q 746.80 81.08 744.04 78.10
  Q 741.82 75.71 739.97 74.33
  Q 730.02 66.88 717.33 65.74
  Q 717.23 65.74 717.25 65.64
  Q 717.26 65.58 717.26 65.55
  Q 717.26 65.54 717.29 65.54
  Q 720.02 65.42 722.75 65.40
  Q 785.06 64.96 795.77 65.39
  Q 797.28 65.45 798.43 65.55
  Q 799.63 65.65 798.44 65.85
  Q 794.70 66.49 790.48 68.69
  Q 768.32 80.27 764.97 105.28
  Q 763.31 117.71 766.76 130.12
  Q 771.15 145.90 785.89 154.37
  Q 787.22 155.13 787.88 155.51
  Q 790.52 157.00 793.45 157.94
  Q 793.63 158.00 795.05 158.12
  Q 795.76 158.18 796.71 158.68
  Q 798.75 159.74 805.07 160.41
  Q 819.17 161.89 833.23 158.46
  Q 840.41 156.70 846.88 153.06
  Q 847.34 152.81 847.34 152.28
  L 847.34 106.26
  Q 847.34 105.67 846.75 105.67
  L 808.32 105.67
  Q 807.81 105.67 807.81 106.18
  L 807.81 121.69
  A 0.43 0.43 0.0 0 0 808.24 122.12
  L 826.42 122.12
  Q 826.96 122.12 826.96 122.66
  L 826.96 140.48
  Q 826.96 140.93 826.55 141.14
  Q 823.84 142.54 820.57 142.99
  Q 817.62 143.39 813.05 143.44
  Q 808.97 143.48 805.74 142.46
  Q 789.39 137.29 786.59 119.30
  Q 784.79 107.80 789.03 97.76
  Q 792.36 89.85 799.65 85.02
  Q 803.31 82.59 808.69 81.43
  Q 813.94 80.29 818.51 80.59
  Q 824.24 80.96 825.24 81.00
  Q 828.64 81.13 831.78 82.16
  Q 837.67 84.10 842.80 86.68
  A 0.41 0.41 0.0 0 0 843.40 86.31
  L 843.40 67.72
  Q 843.40 67.19 842.89 67.06
  L 837.81 65.70
  Q 836.79 65.43 837.84 65.40
  Q 850.55 65.02 865.00 65.32
  Q 865.46 65.33 865.46 65.80
  L 865.46 158.51
  Q 865.46 159.12 866.07 159.12
  L 920.28 159.12
  A 0.47 0.47 0.0 0 1 920.75 159.59
  L 920.75 256.03
  A 0.53 0.52 -90.0 0 1 920.23 256.56
  L 598.07 256.56
  Q 597.60 256.56 597.31 256.19
  Q 596.00 254.56 594.83 252.53
  Q 593.51 250.24 592.78 249.25
  Q 591.23 247.14 590.58 245.89
  Q 589.69 244.19 589.11 243.50
  Q 587.95 242.12 587.57 241.12
  Q 587.16 240.04 585.52 237.80
  Q 584.05 235.78 583.36 234.59
  Q 581.47 231.36 579.34 228.30
  Q 579.26 228.17 576.84 224.53
  Q 572.55 218.06 565.91 214.06
  A 0.23 0.22 52.5 0 1 565.96 213.65
  Q 574.75 211.03 580.32 204.31
  Q 583.79 200.12 585.04 195.11
  Q 586.28 190.17 585.82 184.54
  Q 584.64 170.17 571.53 165.04
  Q 563.97 162.08 553.77 161.94
  Q 538.97 161.74 519.51 161.94
  Q 518.96 161.94 518.96 162.49
  L 518.96 256.09
  Q 518.96 256.63 518.41 256.63
  L 504.11 256.63
  Q 503.44 256.63 503.44 255.96
  L 503.44 240.06
  Q 503.44 239.68 503.06 239.68
  L 468.25 239.68
  Q 467.59 239.68 467.59 239.01
  L 467.59 217.72
  Q 467.59 217.28 468.03 217.28
  L 498.23 217.28
  Q 498.74 217.28 498.74 216.77
  L 498.74 201.23
  A 0.64 0.64 0.0 0 0 498.10 200.59
  L 467.96 200.59
  Q 467.59 200.59 467.59 200.22
  L 467.59 179.29
  A 0.38 0.38 0.0 0 1 467.97 178.91
  L 500.71 178.91
  A 0.63 0.63 0.0 0 0 501.34 178.28
  L 501.34 162.99
  A 1.08 1.08 0.0 0 0 500.26 161.91
  L 447.74 161.91
  Q 447.11 161.91 447.11 162.54
  L 447.11 255.97
  Q 447.11 256.54 446.54 256.54
  L 408.46 256.54
  Q 408.14 256.54 408.14 256.22
  L 408.14 179.38
  Q 408.14 178.90 408.62 178.90
  L 434.44 178.90
  A 0.44 0.43 90.0 0 0 434.87 178.46
  L 434.87 162.53
  A 0.59 0.59 0.0 0 0 434.28 161.94
  L 361.09 161.94
  Q 360.52 161.94 360.52 162.52
  L 360.52 178.33
  Q 360.52 178.90 361.08 178.90
  L 387.05 178.90
  A 0.31 0.31 0.0 0 1 387.36 179.21
  L 387.36 255.75
  A 0.86 0.86 0.0 0 1 386.50 256.61
  L 349.07 256.61
  A 0.41 0.40 -90.0 0 1 348.67 256.20
  L 348.67 162.54
  Q 348.67 161.93 348.06 161.93
  L 329.69 161.93
  A 0.61 0.60 90.0 0 0 329.09 162.54
  L 329.15 227.18
  Q 329.15 227.25 329.14 227.24
  Q 321.50 215.37 302.60 186.39
  Q 299.02 180.91 295.44 175.43
  C 295.16 175.00 294.36 174.21 294.10 173.50
  Q 293.94 173.05 293.68 172.65
  L 286.97 162.36
  Q 286.65 161.87 286.07 161.87
  L 264.65 161.87
  A 0.31 0.31 0.0 0 0 264.34 162.18
  L 264.34 256.27
  A 0.36 0.36 0.0 0 1 263.98 256.63
  L 249.80 256.63
  A 0.81 0.80 90.0 0 1 249.00 255.82
  L 249.00 240.34
  A 0.66 0.66 0.0 0 0 248.34 239.68
  L 213.83 239.68
  Q 213.24 239.68 213.24 239.08
  L 213.24 217.77
  Q 213.24 217.28 213.72 217.28
  L 243.94 217.28
  Q 244.40 217.28 244.40 216.82
  L 244.40 201.04
  A 0.45 0.45 0.0 0 0 243.95 200.59
  L 213.66 200.59
  Q 213.24 200.59 213.24 200.16
  L 213.24 179.45
  A 0.55 0.55 0.0 0 1 213.79 178.90
  L 246.26 178.90
  A 0.46 0.46 0.0 0 0 246.72 178.44
  L 246.72 162.49
  A 0.62 0.62 0.0 0 0 246.10 161.87
  L 193.01 161.87
  A 0.38 0.38 0.0 0 0 192.63 162.25
  L 192.63 256.23
  A 0.41 0.41 0.0 0 1 192.22 256.64
  Q 182.40 256.62 172.43 256.61
  C 171.09 256.61 169.29 257.11 167.75 256.69
  Q 166.89 256.45 167.73 256.18
  L 176.05 253.46
  Q 176.58 253.28 176.58 252.72
  L 176.58 234.98
  A 0.58 0.57 76.0 0 0 175.74 234.47
  Q 165.95 239.72 155.28 240.27
  Q 144.69 240.83 136.31 235.27
  Q 132.93 233.03 129.35 227.91
  Q 128.38 226.52 127.84 224.98
  C 127.32 223.51 126.59 222.54 126.18 221.10
  Q 124.21 214.17 124.67 209.51
  Q 125.12 204.91 125.20 203.85
  Q 125.41 201.07 126.31 198.30
  Q 130.38 185.73 142.53 180.48
  Q 142.55 180.48 143.31 180.39
  Q 143.80 180.33 144.04 180.24
  Q 150.13 177.92 156.58 178.30
  Q 161.22 178.58 166.31 179.76
  Q 170.67 180.78 175.51 183.57
  A 0.71 0.71 0.0 0 0 176.58 182.95
  L 176.58 164.53
  Q 176.58 164.01 176.09 163.84
  Q 172.24 162.47 171.04 162.16
  Q 162.41 159.97 148.05 160.69
  Q 146.56 160.76 143.55 161.33
  Q 141.78 161.67 138.99 161.86
  Q 137.33 161.97 131.69 164.51
  Q 127.09 166.59 124.79 168.11
  Q 109.22 178.46 104.83 196.20
  Q 104.46 197.70 104.46 196.16
  L 104.46 159.67
  Q 104.46 159.12 105.02 159.12
  L 123.64 159.12
  Q 124.18 159.12 124.18 158.58
  L 124.18 114.72
  Q 124.18 113.73 124.70 114.57
  Q 125.22 115.42 125.36 116.21
  Q 125.46 116.74 125.78 117.19
  L 154.72 158.92
  A 0.43 0.43 0.0 0 0 155.07 159.10
  L 180.27 159.10
  A 0.41 0.41 0.0 0 0 180.60 158.44
  L 144.94 110.32
  A 0.92 0.91 45.6 0 1 144.95 109.23
  L 177.58 65.65
  Q 177.90 65.22 178.45 65.22
  L 189.77 65.22
  Q 190.33 65.22 190.33 65.78
  L 190.33 158.39
  Q 190.33 159.12 191.06 159.12
  L 209.35 159.12
  Q 209.94 159.12 209.93 158.54
  Q 209.92 154.54 210.01 105.01
  Q 210.02 99.37 209.46 92.06
  Q 209.43 91.71 209.62 92.01
  L 253.12 158.67
  Q 253.41 159.11 253.98 159.11
  L 274.22 159.11
  A 0.45 0.44 -0.0 0 0 274.67 158.67
  L 274.67 65.74
  Q 274.67 65.23 275.18 65.23
  L 320.58 65.23
  Q 322.15 65.23 320.62 65.61
  Q 313.81 67.36 307.75 72.06
  Q 300.69 77.54 296.20 85.27
  Q 292.06 92.42 290.49 101.48
  Q 287.85 116.75 291.94 130.31
  Q 295.90 143.44 308.33 153.10
  Q 309.24 153.81 312.30 155.28
  Z"
/>
<path fill="#dadada" d="
  M 227.33 87.15
  Q 225.49 84.30 213.42 65.67
  A 0.33 0.33 0.0 0 1 213.70 65.16
  L 254.54 65.25
  A 0.55 0.55 0.0 0 1 255.08 65.79
  L 255.11 130.10
  Q 255.11 130.31 255.01 130.16
  Q 254.95 130.10 253.79 127.89
  Q 253.08 126.54 252.55 125.73
  Q 238.96 105.06 227.33 87.15
  Z"
/>
<path fill="#dadada" d="
  M 417.12 92.98
  Q 416.12 89.27 415.35 85.50
  Q 415.06 84.05 411.09 65.82
  A 0.50 0.49 83.8 0 1 411.57 65.22
  L 444.94 65.22
  A 0.42 0.42 0.0 0 1 445.33 65.78
  Q 444.23 68.72 443.02 73.13
  Q 429.16 123.79 427.85 128.99
  Q 426.75 133.39 426.36 136.84
  Q 426.22 138.13 426.04 136.85
  Q 424.35 124.22 420.91 111.64
  Q 420.82 111.29 420.87 110.22
  Q 420.90 109.51 420.69 108.82
  Q 419.40 104.66 418.63 100.43
  Q 417.60 94.77 417.12 92.98
  Z"
/>
<path fill="#dadada" d="
  M 482.73 127.15
  Q 482.06 124.07 476.68 102.92
  Q 476.01 100.32 475.76 99.31
  Q 473.94 92.02 467.59 65.75
  Q 467.47 65.22 468.02 65.22
  L 498.94 65.22
  Q 499.43 65.22 499.34 65.70
  Q 497.86 73.35 494.30 89.61
  Q 492.56 97.53 488.78 115.60
  Q 488.75 115.74 487.02 123.36
  Q 485.47 130.15 484.89 136.44
  Q 484.76 137.79 484.36 136.51
  Q 484.29 136.30 484.34 135.65
  Q 484.38 135.16 484.31 134.82
  Q 483.93 132.71 482.73 127.15
  Z"
/>
<path fill="#dadada" d="
  M 919.48 80.85
  L 919.48 65.88
  Q 919.48 65.22 920.13 65.22
  L 920.41 65.22
  A 0.50 0.50 0.0 0 1 920.91 65.72
  L 920.91 141.97
  Q 920.91 142.39 920.48 142.39
  L 886.75 142.39
  Q 886.14 142.39 886.14 141.78
  L 886.14 120.67
  Q 886.14 120.03 886.77 120.03
  L 916.90 120.03
  A 0.43 0.43 0.0 0 0 917.33 119.60
  L 917.33 103.72
  A 0.36 0.35 -90.0 0 0 916.98 103.36
  L 886.50 103.36
  A 0.35 0.35 0.0 0 1 886.15 103.01
  L 886.15 81.87
  A 0.41 0.40 0.0 0 1 886.56 81.47
  L 918.86 81.47
  Q 919.48 81.47 919.48 80.85
  Z"
/>
<path fill="#dadada" d="
  M 360.20 112.11
  Q 360.17 117.56 358.98 123.46
  Q 358.29 126.89 355.69 131.51
  Q 350.96 139.93 342.05 142.18
  C 339.09 142.92 335.02 142.75 331.89 142.62
  Q 329.73 142.53 328.05 141.85
  Q 316.63 137.23 312.98 124.86
  Q 310.95 117.96 310.98 111.84
  Q 311.01 105.72 313.12 98.84
  Q 316.91 86.51 328.38 82.02
  Q 330.06 81.36 332.22 81.29
  C 335.36 81.19 339.43 81.07 342.38 81.84
  Q 351.26 84.19 355.90 92.66
  Q 358.45 97.31 359.10 100.74
  Q 360.23 106.65 360.20 112.11
  Z"
/>
<path fill="#dadada" d="
  M 692.16 81.69
  A 0.29 0.29 0.0 0 1 692.45 81.40
  L 704.04 81.40
  A 28.86 28.42 -0.0 0 1 732.90 109.82
  L 732.90 113.90
  A 28.86 28.42 -0.0 0 1 704.04 142.32
  L 692.45 142.32
  A 0.29 0.29 0.0 0 1 692.16 142.03
  L 692.16 81.69
  Z"
/>
<path fill="#dadada" d="
  M 563.35 184.74
  C 567.58 195.83 558.48 204.91 547.70 204.74
  Q 541.74 204.65 540.04 204.58
  A 0.70 0.70 0.0 0 1 539.37 203.88
  L 539.37 178.17
  Q 539.37 177.61 539.92 177.60
  Q 547.06 177.49 551.24 177.68
  Q 556.40 177.91 560.41 180.74
  Q 562.35 182.11 563.35 184.74
  Z"
/>
<path fill="#dadada" d="
  M 312.86 233.97
  Q 314.79 236.94 327.41 256.34
  A 0.34 0.34 0.0 0 1 327.12 256.87
  L 284.55 256.87
  A 0.57 0.57 0.0 0 1 283.98 256.31
  L 283.80 189.26
  Q 283.80 189.05 283.91 189.20
  Q 283.97 189.26 285.18 191.56
  Q 285.93 192.97 286.48 193.81
  Q 300.69 215.33 312.86 233.97
  Z"
/>
<path fill="#dadada" d="
  M 564.94 242.51
  Q 569.10 248.96 573.01 255.95
  A 0.37 0.37 0.0 0 1 572.68 256.50
  L 539.76 256.50
  A 0.39 0.39 0.0 0 1 539.37 256.11
  L 539.37 220.51
  Q 539.37 220.10 539.77 220.11
  C 544.92 220.15 548.70 219.35 552.69 223.93
  Q 553.19 224.51 556.47 228.19
  Q 556.80 228.56 556.94 229.04
  Q 557.06 229.46 557.25 229.75
  Q 559.34 233.01 561.15 236.12
  Q 564.07 241.16 564.94 242.51
  Z"
/>
<path fill="#dadada" d="
  M 132.49 256.71
  L 105.07 256.71
  A 0.62 0.62 0.0 0 1 104.45 256.09
  L 104.45 226.37
  Q 104.45 225.00 104.80 226.32
  Q 110.59 248.42 132.63 255.85
  Q 135.15 256.71 132.49 256.71
  Z"
/>
<path fill="#dadada" d="
  M 91.62 326.51
  Q 92.01 318.49 94.93 313.47
  Q 103.06 299.48 119.42 301.01
  Q 134.46 302.42 139.64 315.70
  Q 142.09 321.97 141.70 329.89
  Q 141.30 337.91 138.38 342.93
  Q 130.25 356.92 113.89 355.39
  Q 98.85 353.98 93.67 340.70
  Q 91.22 334.43 91.62 326.51
  Z
  M 99.35 327.97
  Q 99.31 331.30 99.65 333.51
  Q 101.46 345.09 112.48 348.49
  Q 113.35 348.76 116.52 348.81
  Q 119.69 348.85 120.57 348.60
  Q 131.67 345.48 133.78 333.96
  Q 134.18 331.75 134.23 328.42
  Q 134.27 325.09 133.93 322.88
  Q 132.12 311.30 121.10 307.90
  Q 120.23 307.63 117.06 307.59
  Q 113.89 307.54 113.01 307.79
  Q 101.91 310.91 99.80 322.43
  Q 99.39 324.64 99.35 327.97
  Z"
/>
<path fill="#dadada" d="
  M 288.64 342.39
  Q 288.95 341.29 288.24 339.73
  Q 286.32 335.55 282.80 333.97
  Q 280.74 333.05 279.51 332.20
  Q 278.46 331.47 277.25 331.01
  Q 275.77 330.45 275.11 330.07
  C 270.39 327.35 264.49 323.91 263.54 318.89
  Q 263.29 317.58 263.43 313.22
  Q 263.54 310.12 265.07 308.10
  Q 268.85 303.15 274.94 301.68
  Q 284.44 299.38 293.42 302.59
  Q 293.69 302.69 293.69 302.98
  L 293.69 310.42
  A 0.15 0.14 -76.4 0 1 293.48 310.55
  C 287.63 307.38 281.89 306.35 275.76 308.44
  Q 272.63 309.51 271.42 311.94
  Q 269.16 316.47 274.16 320.66
  Q 275.93 322.14 283.02 325.62
  Q 287.22 327.68 291.63 331.48
  C 295.75 335.02 296.63 340.69 295.13 345.80
  Q 294.32 348.57 292.55 350.28
  Q 290.89 351.89 287.29 353.78
  Q 285.98 354.46 283.07 354.68
  Q 281.22 354.82 278.70 355.18
  C 276.30 355.53 274.56 355.26 272.28 354.83
  Q 271.66 354.71 269.70 354.62
  Q 266.43 354.47 263.52 352.63
  Q 263.30 352.49 263.30 352.22
  L 263.30 344.46
  A 0.15 0.15 0.0 0 1 263.54 344.34
  Q 272.23 350.47 281.47 348.90
  Q 287.05 347.94 288.64 342.39
  Z"
/>
<path fill="#dadada" d="
  M 172.90 325.18
  L 190.71 325.18
  A 0.46 0.46 0.0 0 1 191.17 325.64
  L 191.17 331.19
  A 0.46 0.46 0.0 0 1 190.71 331.65
  L 172.85 331.65
  A 0.46 0.46 0.0 0 0 172.39 332.11
  L 172.39 354.18
  A 0.46 0.46 0.0 0 1 171.93 354.64
  L 165.70 354.64
  A 0.46 0.46 0.0 0 1 165.24 354.18
  L 165.24 302.23
  A 0.46 0.46 0.0 0 1 165.70 301.77
  L 192.18 301.77
  A 0.46 0.46 0.0 0 1 192.64 302.23
  L 192.64 307.80
  A 0.46 0.46 0.0 0 1 192.18 308.26
  L 172.90 308.26
  A 0.46 0.46 0.0 0 0 172.44 308.72
  L 172.44 324.72
  A 0.46 0.46 0.0 0 0 172.90 325.18
  Z"
/>
<path fill="#dadada" d="
  M 223.62 308.24
  Q 222.93 308.24 222.93 308.93
  L 223.00 324.91
  A 0.28 0.28 0.0 0 0 223.28 325.19
  L 241.15 325.18
  A 0.60 0.58 89.9 0 1 241.73 325.78
  L 241.78 331.25
  Q 241.79 331.65 241.39 331.65
  L 223.57 331.69
  Q 222.97 331.69 222.97 332.29
  L 223.00 354.35
  Q 222.99 354.70 222.63 354.70
  L 216.16 354.71
  A 0.36 0.36 0.0 0 1 215.80 354.35
  L 215.78 301.98
  A 0.22 0.22 0.0 0 1 216.00 301.76
  L 242.48 301.73
  Q 243.17 301.73 243.18 302.41
  L 243.17 307.67
  Q 243.17 308.24 242.60 308.24
  L 223.62 308.24
  Z"
/>
<rect fill="#dadada" x="319.93" y="301.73" width="7.28" height="52.92" rx="0.38"/>
<path fill="#dadada" d="
  M 367.27 354.67
  Q 365.56 354.67 363.94 354.63
  A 0.28 0.28 0.0 0 1 363.67 354.35
  L 363.76 308.88
  A 0.69 0.68 0.1 0 0 363.08 308.20
  L 349.10 308.17
  Q 348.56 308.17 348.56 307.63
  L 348.57 302.21
  Q 348.57 301.72 349.06 301.73
  Q 358.02 301.74 367.36 301.76
  Q 376.70 301.78 385.67 301.79
  Q 386.16 301.79 386.15 302.28
  L 386.15 307.70
  Q 386.14 308.24 385.60 308.24
  L 371.63 308.22
  A 0.69 0.68 0.1 0 0 370.94 308.90
  L 370.86 354.36
  A 0.28 0.28 0.0 0 1 370.59 354.65
  Q 368.97 354.67 367.27 354.67
  Z"
/>
<path fill="#dadada" d="
  M 415.22 324.50
  L 433.10 324.50
  A 0.35 0.35 0.0 0 1 433.45 324.85
  L 433.45 330.40
  A 0.35 0.35 0.0 0 1 433.10 330.75
  L 414.95 330.75
  A 0.35 0.35 0.0 0 0 414.60 331.10
  L 414.60 347.92
  A 0.35 0.35 0.0 0 0 414.95 348.27
  L 435.84 348.27
  A 0.35 0.35 0.0 0 1 436.19 348.62
  L 436.19 354.33
  A 0.35 0.35 0.0 0 1 435.84 354.68
  L 407.95 354.68
  A 0.35 0.35 0.0 0 1 407.60 354.33
  L 407.60 302.11
  A 0.35 0.35 0.0 0 1 407.95 301.76
  L 434.74 301.76
  A 0.35 0.35 0.0 0 1 435.09 302.11
  L 435.09 307.86
  A 0.35 0.35 0.0 0 1 434.74 308.21
  L 415.22 308.21
  A 0.35 0.35 0.0 0 0 414.87 308.56
  L 414.87 324.15
  A 0.35 0.35 0.0 0 0 415.22 324.50
  Z"
/>
<path fill="#dadada" d="
  M 532.02 326.02
  Q 531.13 326.47 532.11 326.63
  Q 536.06 327.30 538.88 330.02
  C 542.54 333.56 542.97 339.99 541.39 344.76
  Q 540.19 348.40 536.64 351.03
  C 531.34 354.97 526.90 354.63 519.05 354.68
  Q 514.20 354.70 509.16 354.66
  A 0.45 0.44 0.7 0 1 508.72 354.22
  L 508.72 302.27
  Q 508.72 301.76 509.23 301.76
  Q 516.86 301.74 523.50 301.76
  C 526.89 301.77 531.42 302.10 534.28 303.99
  Q 537.23 305.94 538.60 308.64
  Q 539.87 311.15 539.78 314.53
  Q 539.56 322.24 532.02 326.02
  Z
  M 516.06 308.35
  L 516.08 323.61
  A 0.30 0.30 0.0 0 0 516.38 323.91
  L 523.12 323.90
  A 8.74 6.52 -0.1 0 0 531.85 317.37
  L 531.85 314.55
  A 8.74 6.52 -0.1 0 0 523.10 308.04
  L 516.36 308.05
  A 0.30 0.30 0.0 0 0 516.06 308.35
  Z
  M 516.07 330.74
  L 516.17 348.02
  A 0.30 0.30 0.0 0 0 516.47 348.32
  L 524.62 348.27
  A 10.21 8.43 -0.3 0 0 534.78 339.79
  L 534.78 338.77
  A 10.21 8.43 -0.3 0 0 524.52 330.39
  L 516.37 330.44
  A 0.30 0.30 0.0 0 0 516.07 330.74
  Z"
/>
<path fill="#dadada" d="
  M 585.46 348.77
  Q 588.88 348.77 589.75 348.49
  C 596.79 346.23 598.30 339.57 598.31 333.00
  Q 598.32 318.65 598.36 302.18
  Q 598.36 301.78 598.75 301.78
  L 605.16 301.78
  Q 605.56 301.78 605.56 302.18
  Q 605.54 318.50 605.48 333.01
  C 605.44 343.45 602.54 352.43 591.27 355.05
  Q 589.68 355.42 585.44 355.42
  Q 581.21 355.41 579.63 355.04
  C 568.36 352.37 565.49 343.38 565.48 332.94
  Q 565.47 318.43 565.50 302.11
  Q 565.51 301.71 565.91 301.72
  L 572.32 301.74
  Q 572.71 301.74 572.70 302.14
  Q 572.69 318.61 572.65 332.96
  C 572.64 339.53 574.13 346.19 581.16 348.48
  Q 582.03 348.76 585.46 348.77
  Z"
/>
<rect fill="#dadada" x="631.23" y="301.74" width="7.04" height="52.90" rx="0.34"/>
<path fill="#dadada" d="
  M 693.98 348.68
  L 693.98 354.29
  A 0.39 0.39 0.0 0 1 693.59 354.68
  L 666.15 354.68
  A 0.39 0.39 0.0 0 1 665.76 354.29
  L 665.76 302.14
  A 0.39 0.39 0.0 0 1 666.15 301.75
  L 672.77 301.75
  A 0.39 0.39 0.0 0 1 673.16 302.14
  L 673.16 347.90
  A 0.39 0.39 0.0 0 0 673.55 348.29
  L 693.59 348.29
  A 0.39 0.39 0.0 0 1 693.98 348.68
  Z"
/>
<path fill="#dadada" d="
  M 724.60 301.76
  Q 733.95 301.76 742.91 301.76
  Q 743.40 301.76 743.40 302.25
  L 743.40 307.67
  Q 743.40 308.21 742.86 308.21
  L 728.88 308.21
  A 0.69 0.68 0.0 0 0 728.19 308.89
  L 728.19 354.37
  A 0.28 0.28 0.0 0 1 727.91 354.65
  Q 726.30 354.69 724.59 354.69
  Q 722.89 354.69 721.27 354.65
  A 0.28 0.28 0.0 0 1 720.99 354.37
  L 721.01 308.89
  A 0.69 0.68 0.0 0 0 720.32 308.21
  L 706.34 308.20
  Q 705.80 308.20 705.80 307.66
  L 705.81 302.24
  Q 705.81 301.75 706.29 301.75
  Q 715.26 301.76 724.60 301.76
  Z"
/>
<path fill="#dadada" d="
  M 849.81 343.56
  Q 850.27 344.26 850.27 343.43
  L 850.27 302.00
  Q 850.27 301.77 850.49 301.77
  L 856.82 301.77
  Q 857.11 301.77 857.11 302.06
  L 857.11 354.29
  A 0.39 0.38 0.0 0 1 856.72 354.67
  L 849.27 354.67
  Q 848.71 354.67 848.41 354.21
  Q 830.36 326.24 823.18 315.31
  Q 822.18 313.78 822.00 313.27
  Q 821.10 310.67 821.10 313.52
  L 821.11 354.28
  Q 821.11 354.67 820.71 354.67
  L 814.12 354.67
  Q 813.77 354.67 813.77 354.32
  L 813.77 302.24
  Q 813.77 301.75 814.26 301.75
  L 822.08 301.75
  A 0.84 0.83 73.1 0 1 822.78 302.13
  L 849.81 343.56
  Z"
/>
<path fill="#dadada" d="
  M 902.37 328.74
  Q 902.34 328.88 902.25 329.01
  Q 898.86 334.04 889.62 347.58
  A 0.46 0.45 17.0 0 0 890.00 348.29
  L 918.26 348.29
  Q 918.46 348.29 918.46 348.49
  L 918.46 354.32
  Q 918.46 354.68 918.11 354.68
  L 879.02 354.68
  Q 878.45 354.68 878.46 354.11
  C 878.47 353.06 878.26 352.33 878.93 351.35
  Q 896.51 325.47 907.77 309.09
  A 0.67 0.67 0.0 0 0 907.21 308.04
  L 881.50 308.04
  A 0.39 0.39 0.0 0 1 881.11 307.65
  L 881.11 302.17
  A 0.41 0.40 -90.0 0 1 881.51 301.76
  L 918.02 301.76
  A 1.54 1.53 -72.6 0 1 919.28 304.17
  L 902.52 328.41
  Q 902.42 328.56 902.37 328.74
  Z"
/>
<path fill="#0e0e0e" d="
  M 117.06 307.59
  Q 120.23 307.63 121.10 307.90
  Q 132.12 311.30 133.93 322.88
  Q 134.27 325.09 134.23 328.42
  Q 134.18 331.75 133.78 333.96
  Q 131.67 345.48 120.57 348.60
  Q 119.69 348.85 116.52 348.81
  Q 113.35 348.76 112.48 348.49
  Q 101.46 345.09 99.65 333.51
  Q 99.31 331.30 99.35 327.97
  Q 99.39 324.64 99.80 322.43
  Q 101.91 310.91 113.01 307.79
  Q 113.89 307.54 117.06 307.59
  Z"
/>
<path fill="#0e0e0e" d="
  M 516.06 308.35
  A 0.30 0.30 0.0 0 1 516.36 308.05
  L 523.10 308.04
  A 8.74 6.52 -0.1 0 1 531.85 314.55
  L 531.85 317.37
  A 8.74 6.52 -0.1 0 1 523.12 323.90
  L 516.38 323.91
  A 0.30 0.30 0.0 0 1 516.08 323.61
  L 516.06 308.35
  Z"
/>
<path fill="#0e0e0e" d="
  M 516.07 330.74
  A 0.30 0.30 0.0 0 1 516.37 330.44
  L 524.52 330.39
  A 10.21 8.43 -0.3 0 1 534.78 338.77
  L 534.78 339.79
  A 10.21 8.43 -0.3 0 1 524.62 348.27
  L 516.47 348.32
  A 0.30 0.30 0.0 0 1 516.17 348.02
  L 516.07 330.74
  Z"
/>
</svg>
